<svg width="34" height="34" viewBox="0 0 34 34" fill="none" xmlns="http://www.w3.org/2000/svg">
<path d="M10.3126 24.874C8.79845 24.874 7.57338 26.1156 7.57338 27.6331C7.57338 29.1507 8.79845 30.3923 10.3126 30.3923C11.8267 30.3923 13.0655 29.1507 13.0655 27.6331C13.0655 26.1156 11.8267 24.874 10.3126 24.874ZM2.05371 2.80078V5.55993H4.80666L9.76198 16.0309L7.90374 19.4109C7.6835 19.7971 7.55962 20.2524 7.55962 20.7353C7.55962 22.2528 8.79845 23.4944 10.3126 23.4944H26.8303V20.7353H10.8907C10.698 20.7353 10.5466 20.5835 10.5466 20.3904L10.5879 20.2248L11.8267 17.9761H22.0814C23.1138 17.9761 24.0223 17.4105 24.4903 16.5551L29.4181 7.6017C29.5282 7.40856 29.5832 7.17403 29.5832 6.93951C29.5832 6.18074 28.9638 5.55993 28.2068 5.55993H7.84868L6.55479 2.80078H2.05371ZM24.0773 24.874C22.5632 24.874 21.3381 26.1156 21.3381 27.6331C21.3381 29.1507 22.5632 30.3923 24.0773 30.3923C25.5915 30.3923 26.8303 29.1507 26.8303 27.6331C26.8303 26.1156 25.5915 24.874 24.0773 24.874Z" fill="#333333"/>
</svg>
