<svg width="1440" height="735" viewBox="0 0 1440 735" fill="none" xmlns="http://www.w3.org/2000/svg">
<rect width="1440" height="735" fill="#00ADEE"/>
<g opacity="0.4">
<path opacity="0.1" d="M1716 214.038L790 735H1716V214.038Z" fill="white"/>
<path opacity="0.1" d="M1298.73 245.4L1633.69 52L1715.67 194.001L1714.26 731.272H1579.23L1298.73 245.4Z" fill="white"/>
<g opacity="0.5">
<path opacity="0.4" d="M89.4482 94.999L233.097 11.9695L650.286 733.341L459.099 734.17L89.4482 94.999Z" fill="#084482"/>
<path opacity="0.6" d="M1 35.5362L41.7725 11.9695L459.441 734.17L267.774 734.17L1.07533 273.015L1 35.5362Z" fill="#00ADEE"/>
<path opacity="0.6" d="M1 272.599L1.00015 0L35.0157 0.000255909L426.482 676.894L325.954 735L268.419 735L1 272.599Z" fill="#084482"/>
<path opacity="0.6" d="M34.8613 0.13623L226.528 0.136625L361.77 233.985L218.121 317.015L34.8613 0.13623Z" fill="#084482"/>
<path opacity="0.6" d="M763.997 1.79492L764 1.79494L1 442.19L1.00031 250.644L432.141 1.79497L763.997 1.79492Z" fill="white" fill-opacity="0.2"/>
</g>
</g>
</svg>
