<?xml version="1.0" standalone="no"?>
<!DOCTYPE svg PUBLIC "-//W3C//DTD SVG 20010904//EN"
 "http://www.w3.org/TR/2001/REC-SVG-20010904/DTD/svg10.dtd">
<svg version="1.0" xmlns="http://www.w3.org/2000/svg"
 width="512.000000pt" height="512.000000pt" viewBox="0 0 512.000000 512.000000"
 preserveAspectRatio="xMidYMid meet">
<metadata>
Created by potrace 1.11, written by Peter Selinger 2001-2013
</metadata>
<g transform="translate(0.000000,512.000000) scale(0.100000,-0.100000)"
fill="#000000" stroke="none">
<path d="M2601 4282 c-29 -15 -81 -53 -116 -84 l-62 -57 -51 35 c-28 18 -54
34 -58 34 -26 0 -195 -128 -254 -193 -21 -23 -38 -29 -110 -39 -47 -6 -90 -15
-97 -20 -7 -6 -35 -52 -63 -103 -27 -52 -55 -97 -61 -101 -19 -11 -85 -164
-102 -235 -36 -145 -50 -306 -43 -494 l6 -180 -44 3 c-89 7 -146 -44 -168
-152 -9 -46 -8 -81 6 -184 22 -162 38 -225 71 -284 30 -54 104 -122 152 -140
27 -10 32 -18 38 -57 29 -190 149 -424 297 -573 l74 -75 -92 -21 c-117 -27
-177 -55 -237 -113 -48 -46 -49 -49 -44 -96 2 -26 7 -57 11 -68 6 -17 -2 -24
-51 -45 -285 -122 -477 -416 -498 -760 -3 -52 -8 -123 -11 -158 l-6 -62 1478
2 1477 3 -2 75 c-9 312 -65 491 -205 665 -78 97 -160 164 -269 220 -80 41 -82
43 -70 66 55 107 -55 216 -268 265 l-76 17 79 79 c152 152 274 385 303 579 6
42 11 49 47 65 58 26 125 96 155 160 37 82 77 349 64 428 -19 110 -78 170
-162 164 l-47 -3 5 180 c11 352 -37 602 -141 738 -15 19 -26 38 -26 43 0 12
-66 110 -102 153 -50 57 -140 131 -212 174 l-68 40 -58 -32 -59 -32 -52 47
c-43 38 -210 154 -221 154 -2 0 -27 -13 -57 -28z m144 -107 c46 -30 105 -75
131 -98 l48 -44 58 34 58 34 71 -42 c105 -61 209 -164 249 -246 19 -38 46 -88
60 -113 71 -121 109 -284 116 -500 l5 -155 -24 75 c-52 162 -109 266 -196 361
-32 36 -77 78 -99 93 l-41 28 -78 -30 c-158 -61 -343 -100 -478 -103 -67 -1
-80 2 -118 26 -119 78 -237 243 -252 354 -9 69 -24 55 -19 -18 6 -107 63 -210
167 -307 l62 -57 -60 7 c-120 14 -301 69 -383 117 l-33 19 -36 -27 c-44 -34
-132 -137 -178 -208 -50 -78 -72 -124 -106 -222 l-30 -88 5 145 c9 213 50 377
121 477 18 27 54 85 80 129 49 88 48 87 150 100 56 7 63 10 120 69 58 60 173
145 195 145 6 0 36 -16 66 -35 30 -19 57 -35 60 -35 3 0 28 24 57 53 60 62
133 117 155 117 8 0 52 -25 97 -55z m-673 -680 c128 -59 252 -86 418 -92 214
-8 394 22 592 98 93 36 101 35 174 -33 114 -105 197 -289 232 -510 l9 -58 -31
-4 c-17 -3 -202 -17 -410 -32 -321 -22 -385 -29 -415 -45 -45 -24 -80 -24
-128 0 -32 16 -99 24 -433 47 -217 15 -397 28 -399 30 -6 6 31 159 59 241 16
45 49 122 74 171 48 93 147 222 170 222 7 0 47 -16 88 -35z m38 -716 c322 -23
326 -24 324 -98 -3 -95 -14 -129 -59 -179 -61 -67 -125 -94 -239 -100 -141 -7
-235 21 -317 95 -77 70 -98 155 -60 239 16 36 42 62 61 64 3 0 133 -9 290 -21z
m1249 5 c47 -34 66 -138 37 -207 -19 -47 -108 -122 -174 -148 -45 -17 -79 -22
-162 -23 -120 -1 -167 10 -236 57 -64 42 -93 97 -101 184 -9 113 -16 109 282
132 323 24 326 24 354 5z m-1763 -2 c6 -4 13 -40 16 -79 l5 -73 -39 0 c-29 0
-45 -7 -63 -26 -22 -24 -24 -33 -19 -83 17 -158 19 -166 34 -166 12 0 15 18
15 105 l0 105 38 3 37 3 1 -68 c1 -37 4 -134 8 -216 3 -83 2 -147 -3 -147 -40
0 -145 120 -160 185 -13 53 -36 258 -36 321 0 48 5 67 22 89 34 43 112 69 144
47z m2101 -18 c45 -29 56 -69 49 -168 -12 -160 -35 -287 -59 -325 -32 -52 -86
-110 -119 -127 l-29 -15 6 138 c3 76 8 175 11 221 l6 82 33 0 c18 0 35 -6 37
-12 3 -7 1 -53 -3 -103 -5 -56 -4 -94 2 -100 21 -20 37 27 44 126 7 96 6 101
-16 125 -16 17 -33 24 -62 24 l-40 0 5 71 c4 44 11 75 19 80 18 12 88 2 116
-17z m-1080 -62 c7 -4 17 -38 23 -76 13 -85 37 -132 91 -180 101 -92 285 -129
448 -91 162 39 277 151 317 310 10 43 11 17 7 -175 -7 -378 -22 -481 -94 -658
-112 -276 -349 -492 -620 -563 -99 -26 -268 -31 -364 -10 -271 59 -498 245
-634 518 -82 164 -107 297 -116 608 l-6 220 29 -50 c60 -101 151 -169 267
-200 73 -18 213 -19 280 -1 168 44 255 132 271 274 4 41 12 66 23 72 19 11 62
13 78 2z m-412 -1432 l70 -37 11 -155 c12 -172 18 -187 92 -248 l37 -30 -42 0
c-52 0 -246 49 -338 85 -156 62 -292 157 -327 230 -21 43 -21 46 -5 79 23 50
85 81 233 120 l129 34 35 -21 c19 -12 67 -37 105 -57z m1188 -26 c47 -31 68
-75 56 -118 -12 -44 -124 -144 -217 -194 -126 -67 -377 -142 -474 -142 l-33 0
37 26 c72 51 87 86 98 225 5 68 10 136 10 152 0 24 9 31 83 66 45 22 96 48
112 59 l30 19 130 -34 c75 -19 145 -44 168 -59z m-807 -64 c72 0 166 11 218
27 18 5 18 -1 11 -133 -8 -161 -17 -182 -112 -256 -47 -36 -63 -42 -112 -46
-73 -5 -101 9 -185 91 -63 62 -63 62 -69 132 -4 39 -7 104 -7 146 l0 75 88
-18 c48 -10 123 -18 168 -18z m-800 -216 c118 -84 241 -139 450 -199 8 -2 13
-89 16 -278 3 -150 8 -279 13 -286 22 -36 29 21 33 279 3 148 7 270 11 270 3
0 63 -7 134 -15 70 -8 148 -12 175 -10 26 3 84 7 129 9 l82 5 5 -132 c7 -185
15 -259 29 -254 15 5 24 103 26 270 1 93 4 129 14 131 215 62 355 126 472 213
78 59 76 59 175 6 111 -60 206 -146 279 -253 103 -150 146 -294 153 -517 l3
-83 -1418 0 -1419 0 7 88 c18 243 55 365 156 512 45 65 107 132 171 183 49 40
190 117 213 117 8 0 49 -25 91 -56z"/>
<path d="M2579 4053 c-32 -83 -11 -226 48 -333 41 -76 113 -169 130 -170 28
-1 22 25 -22 83 -97 130 -146 263 -140 378 2 38 1 69 -1 69 -2 0 -9 -12 -15
-27z"/>
<path d="M2392 3869 c4 -58 12 -92 36 -144 33 -69 87 -145 103 -145 24 0 18
32 -14 77 -50 70 -85 144 -101 214 -21 87 -29 86 -24 -2z"/>
<path d="M2026 2664 c-19 -18 -21 -45 -4 -62 16 -16 190 -16 206 0 17 17 15
44 -4 62 -11 12 -36 16 -99 16 -63 0 -88 -4 -99 -16z"/>
<path d="M2968 2679 c-21 -12 -24 -49 -6 -67 16 -16 190 -16 206 0 17 17 15
44 -4 62 -18 19 -167 22 -196 5z"/>
<path d="M2656 2367 c-15 -11 -15 -16 4 -71 23 -67 26 -119 8 -133 -7 -6 -30
-16 -51 -23 -41 -13 -57 -34 -39 -52 14 -14 113 17 143 45 25 23 25 76 -1 160
-23 75 -38 93 -64 74z"/>
<path d="M2147 1883 c-16 -15 -5 -43 26 -61 182 -113 505 -135 732 -52 81 30
145 71 145 93 0 31 -24 29 -83 -6 -31 -19 -89 -45 -129 -58 -65 -21 -91 -24
-243 -24 -193 0 -261 15 -369 80 -61 37 -68 39 -79 28z"/>
<path d="M2450 1590 c0 -19 7 -20 140 -20 133 0 140 1 140 20 0 19 -7 20 -140
20 -133 0 -140 -1 -140 -20z"/>
</g>
</svg>
