<?xml version="1.0" encoding="UTF-8"?>
<svg width="36px" height="36px" viewBox="0 0 36 36" version="1.1" xmlns="http://www.w3.org/2000/svg" xmlns:xlink="http://www.w3.org/1999/xlink">
    <!-- Generator: sketchtool 51 (57462) - http://www.bohemiancoding.com/sketch -->
    <title>5349DE70-3539-44A5-8EF4-44E68C241A1C</title>
    <desc>Created with sketchtool.</desc>
    <defs></defs>
    <g id="Page-1" stroke="none" stroke-width="1" fill="none" fill-rule="evenodd">
        <g id="Test-Task" transform="translate(-220.000000, -13.000000)">
            <rect fill="#FFFFFF" x="0" y="0" width="1600" height="2220"></rect>
            <g id="header" fill="#8088A3" fill-rule="nonzero">
                <g id="schedule" transform="translate(220.000000, 13.000000)">
                    <path d="M16.5054975,0.0444862776 C13.728415,0.25266949 10.7904238,1.24632234 8.31040367,2.80825909 C6.32436212,4.06523556 4.0671387,6.32261677 2.81025008,8.30879715 C1.24054585,10.8024944 0.261590527,13.7114328 0.0466704501,16.5325967 C-0.0849821625,18.2622053 0.0680499342,20.3800475 0.428125456,21.99825 C0.587908968,22.7139501 1.12239607,24.4075487 1.3451928,24.9083137 C2.44904932,27.38063 3.62267047,29.1237424 5.28351882,30.7768297 C8.01896754,33.4854621 11.2630229,35.1453012 15.1450872,35.8261166 C16.2421923,36.0129188 19.0552823,36.0624326 20.2210268,35.9093898 C24.2561231,35.3883692 27.7769866,33.6868934 30.658716,30.8533511 C33.5685763,27.9995531 35.3802062,24.3321526 35.9090672,20.2202528 C36.0620993,19.0533015 36.0137141,16.2400149 35.8257997,15.1439584 C35.1450319,11.2616228 33.4853088,8.01846597 30.7768657,5.28170071 C29.1238941,3.62186159 27.3809035,2.44815839 24.90876,1.3430994 C24.4091552,1.12028709 22.7145498,0.58576263 21.9988997,0.425967948 C20.3875617,0.0647419415 18.2417366,-0.0815489645 16.5054975,0.0444862776 Z M20.3943131,1.52990163 C22.1789374,1.80785435 23.6574975,2.26585742 25.290215,3.05807894 C30.7341068,5.69018993 34.3314863,11.1007028 34.6172962,17.0806249 C34.8254649,21.2746727 33.6585952,24.9983389 31.0964328,28.3112653 C30.5270634,29.047221 29.152025,30.4426112 28.4161206,31.0198976 C26.1619251,32.8065159 23.4899264,33.9896357 20.6519922,34.4577339 C19.2071891,34.69405 16.908332,34.69405 15.3948896,34.4577339 C10.0545195,33.6171239 5.42192285,30.1725357 3.06117771,25.2897954 C2.29940821,23.7474787 1.78380729,22.0953901 1.53310721,20.3935513 C1.35194422,19.2547329 1.34631804,16.9073265 1.51172773,15.7752599 C2.04734007,12.1708771 3.56753391,9.03800105 6.01829793,6.47565957 C7.03213557,5.41336253 8.01784231,4.6357701 9.66406258,3.60723249 C10.1636674,3.29439502 11.4903206,2.66984538 12.302741,2.371637 C13.2119317,2.03854386 14.6499833,1.67731785 15.7752193,1.51077128 C16.9072067,1.34422471 19.2544491,1.3509766 20.3931879,1.53215226 L20.3943131,1.52990163 Z M17.6172307,7.52332752 C17.4601414,7.61299624 17.3248716,7.73636177 17.2211476,7.88455352 L17.0613641,8.1208696 L17.0613641,13.6833 C17.0613641,19.0724319 17.0681155,19.2536075 17.2008933,19.4685426 C17.5002061,19.9546786 17.3674283,19.9411748 20.846658,19.9411748 C24.2426203,19.9411748 24.2910054,19.9344229 24.5621873,19.5596931 C24.8615001,19.1422014 24.8052383,18.6358098 24.4159066,18.2678319 L24.2077379,18.0664006 L19.0057719,18.0247639 L19.0057719,17.7333074 C18.9990205,17.5735128 18.9922691,15.3442644 18.9843924,12.7886748 C18.9708896,8.41345141 18.9630129,8.12199492 18.8448631,7.92731548 C18.5601784,7.46256052 18.0538222,7.29488864 17.6161054,7.52445283 L17.6172307,7.52332752 Z" id="icon_clock_dark"></path>
                </g>
            </g>
        </g>
    </g>
</svg>