<?xml version="1.0" encoding="UTF-8"?>
<svg width="48px" height="56px" viewBox="0 0 48 56" version="1.1" xmlns="http://www.w3.org/2000/svg" xmlns:xlink="http://www.w3.org/1999/xlink">
    <!-- Generator: sketchtool 51 (57462) - http://www.bohemiancoding.com/sketch -->
    <title>B490614E-F5BD-45B3-9F3A-B1EBF39DF8E9</title>
    <desc>Created with sketchtool.</desc>
    <defs></defs>
    <g id="Page-1" stroke="none" stroke-width="1" fill="none" fill-rule="evenodd">
        <g id="Test-Task" transform="translate(-496.000000, -1065.000000)">
            <rect fill="#FFFFFF" x="0" y="0" width="1600" height="2220"></rect>
            <g id="content" transform="translate(0.000000, 124.000000)" fill="#3D4252" fill-rule="nonzero">
                <g id="items" transform="translate(100.000000, 841.000000)">
                    <g id="row-1">
                        <g id="2" transform="translate(280.000000, 0.000000)">
                            <g id="icon" transform="translate(78.000000, 66.000000)">
                                <path d="M84.3928704,34 L39.6071296,34 C38.7195833,34 38,34.7403594 38,35.6535313 L38,88.3464687 C38,89.2596406 38.7195833,90 39.6071296,90 L84.3928704,90 C85.2804167,90 86,89.2596406 86,88.3464687 L86,35.6535313 C86,34.7403594 85.280523,34 84.3928704,34 Z M60.3931893,86.6929375 L50.4432948,86.6929375 L50.4432948,50.9769687 L60.3931893,50.9769687 L60.3931893,86.6929375 Z M73.5567052,86.6929375 L63.6074485,86.6929375 L63.6074485,50.9769687 L73.5567052,50.9769687 L73.5567052,86.6929375 Z M82.7857409,86.6930469 L76.7709644,86.6929375 L76.7709644,49.3234375 C76.7709644,48.4102656 76.0513811,47.6699062 75.1638348,47.6699062 L48.8361652,47.6699062 C47.9486189,47.6699062 47.2290356,48.4102656 47.2290356,49.3234375 L47.2290356,86.6930469 L41.2142591,86.6930469 L41.2142591,37.3070625 L82.7857409,37.3070625 L82.7857409,86.6930469 Z M67.4645382,40.8355 L56.5360996,40.8355 C55.6485534,40.8355 54.9289701,41.5758594 54.9289701,42.4890312 C54.9289701,43.4022031 55.6485534,44.1425625 56.5360996,44.1425625 L67.4645382,44.1425625 C68.3520845,44.1425625 69.0716678,43.4022031 69.0716678,42.4890312 C69.0716678,41.5758594 68.3520845,40.8355 67.4645382,40.8355 Z" id="icon_elevator"></path>
                            </g>
                        </g>
                    </g>
                </g>
            </g>
        </g>
    </g>
</svg>