<?xml version="1.0" encoding="UTF-8"?>
<svg width="56px" height="48px" viewBox="0 0 56 48" version="1.1" xmlns="http://www.w3.org/2000/svg" xmlns:xlink="http://www.w3.org/1999/xlink">
    <!-- Generator: sketchtool 51 (57462) - http://www.bohemiancoding.com/sketch -->
    <title>45F0D6A9-F114-4B36-89DB-0D6BABCA0F5D</title>
    <desc>Created with sketchtool.</desc>
    <defs></defs>
    <g id="Page-1" stroke="none" stroke-width="1" fill="none" fill-rule="evenodd">
        <g id="Test-Task" transform="translate(-772.000000, -1325.000000)">
            <rect fill="#FFFFFF" x="0" y="0" width="1600" height="2220"></rect>
            <g id="content" transform="translate(0.000000, 124.000000)" fill="#3D4252">
                <g id="items" transform="translate(100.000000, 841.000000)">
                    <g id="row-2" transform="translate(0.000000, 256.000000)">
                        <g id="3" transform="translate(560.000000, 0.000000)">
                            <g id="icon" transform="translate(78.000000, 66.000000)">
                                <path d="M74.4444444,63.0434783 L90,77.6521739 L90,86 L34,86 L34,77.6521739 L49.5555556,63.0434783 L49.5555556,38 L74.4444444,38 L74.4444444,63.0434783 Z M53.7037037,64.0869565 L41.2592593,74.5217391 L82.7407407,74.5217391 L70.2962963,64.0869565 L53.7037037,64.0869565 Z M38.1481481,77.6521739 L38.1481481,81.826087 L85.8518519,81.826087 L85.8518519,77.6521739 L38.1481481,77.6521739 Z M53.7037037,42.173913 L53.7037037,62 L70.2962963,62 L70.2962963,42.173913 L53.7037037,42.173913 Z" id="icon_branding"></path>
                            </g>
                        </g>
                    </g>
                </g>
            </g>
        </g>
    </g>
</svg>