<?xml version="1.0" encoding="UTF-8"?>
<svg width="47px" height="48px" viewBox="0 0 47 48" version="1.1" xmlns="http://www.w3.org/2000/svg" xmlns:xlink="http://www.w3.org/1999/xlink">
    <!-- Generator: sketchtool 51 (57462) - http://www.bohemiancoding.com/sketch -->
    <title>8A495069-3EA4-4128-86B8-E9D98827761D</title>
    <desc>Created with sketchtool.</desc>
    <defs></defs>
    <g id="Page-1" stroke="none" stroke-width="1" fill="none" fill-rule="evenodd">
        <g id="Test-Task" transform="translate(-217.000000, -1069.000000)">
            <rect fill="#FFFFFF" x="0" y="0" width="1600" height="2220"></rect>
            <g id="content" transform="translate(0.000000, 124.000000)" fill="#3D4252" fill-rule="nonzero">
                <g id="items" transform="translate(100.000000, 841.000000)">
                    <g id="row-1">
                        <g id="1">
                            <g id="icon" transform="translate(78.000000, 66.000000)">
                                <path d="M45.2183169,85.8335068 C44.944222,85.6426566 44.8071746,85.3155758 44.87113,84.979316 L46.6070644,74.9277827 L39.2613212,67.8117977 C39.0237723,67.5845951 38.9415438,67.2392471 39.0420453,66.9211635 C39.1425467,66.612168 39.4166416,66.3758773 39.7455555,66.3304368 L49.8870666,64.8672521 L54.4370419,55.7245292 C54.7294097,55.1338025 55.7070149,55.1338025 55.9993828,55.7245292 L60.5402215,64.8672521 L70.6817326,66.3304368 C71.0106465,66.3758773 71.2847414,66.6030799 71.3852428,66.9211635 C71.4858357,67.2392471 71.4036072,67.5845951 71.1660583,67.8117977 L63.8203151,74.9277827 L65.5562494,84.979316 C65.6109771,85.3063968 65.4739296,85.6426566 65.2090626,85.8335068 C65.0536508,85.9425641 64.8800573,85.9971836 64.6973274,85.9971836 C64.5511435,85.9971836 64.414096,85.9607403 64.2861851,85.8971235 L55.2136441,81.1531335 L46.1411031,85.8971235 C45.8487352,86.0516213 45.4924118,86.0334451 45.2183169,85.8335068 Z M85.9579547,74.2461749 C86.0584562,74.5642585 85.9762277,74.9096973 85.7386788,75.1368999 L82.7511358,78.0359141 L83.4545547,82.1255606 C83.5093737,82.4527323 83.3723262,82.7889013 83.1073678,82.9798423 C82.9520474,83.0888996 82.7784539,83.1434282 82.595724,83.1434282 C82.4495401,83.1434282 82.3124926,83.1069849 82.1845817,83.0434591 L78.4934371,81.1076021 L74.8023839,83.0434591 C74.5099246,83.1978659 74.1444648,83.1706925 73.8795064,82.9798423 C73.614548,82.7799041 73.4775005,82.4528232 73.5323195,82.1255606 L74.2358297,78.0359141 L71.2481954,75.1368999 C71.0107378,74.9096973 70.928418,74.5642585 71.0290108,74.2461749 C71.1294209,73.9372703 71.4035158,73.7008887 71.7324297,73.6554482 L75.8621261,73.0556334 L77.7076984,69.3295109 C77.8538823,69.0386916 78.1554781,68.8478415 78.4934371,68.8478415 C78.8315788,68.8478415 79.1329918,69.0296035 79.2792672,69.3295109 L81.1248394,73.0556334 L85.2544445,73.6554482 C85.5833584,73.7008887 85.8574533,73.9280913 85.9579547,74.2461749 Z M68.2331515,51.5804449 L69.5668973,54.2706144 L72.5453952,54.6977553 C72.8742177,54.7431958 73.1483126,54.9703984 73.2489054,55.288482 C73.3494068,55.6065656 73.2672697,55.9519135 73.0296295,56.1791161 L70.8734163,58.2693799 L71.3576506,61.0503396 C71.394288,61.1503087 71.4124696,61.2321016 71.4124696,61.3411589 C71.4124696,61.8228284 71.0196002,62.1863525 70.5353659,62.1863525 C70.5353659,62.1863525 70.5263208,62.1863525 70.5170929,62.1863525 C70.3800455,62.1863525 70.242998,62.1772644 70.1151785,62.1136477 L67.4473215,60.732256 L64.7794645,62.1318239 C64.6607814,62.2045287 64.5145061,62.2408811 64.3774587,62.2408811 C64.1947287,62.2408811 64.0211353,62.1862616 63.8658149,62.0772953 C63.6007651,61.8772661 63.4637176,61.5500944 63.518628,61.2229227 L64.0302718,58.269289 L61.8740586,56.1790252 C61.6365097,55.9518227 61.5542812,55.6064747 61.6547827,55.2883911 C61.7552842,54.9793956 62.0293791,54.7431049 62.3582929,54.6976644 L65.3367908,54.2705235 L66.6708106,51.5804449 C66.9632699,50.9897182 67.9407837,50.9897182 68.2331515,51.5804449 Z M48.2424972,40.5565754 L50.0697965,44.2281692 L54.162947,44.8188959 C54.6106353,44.8825126 54.9852316,45.1915082 55.1314156,45.6277371 C55.2775995,46.0639661 55.1588251,46.5365475 54.8299112,46.8546311 L51.8696863,49.7264718 L52.5275141,53.5525633 C52.5823331,53.6888849 52.6097426,53.7979421 52.6097426,53.9524399 C52.6097426,54.6158714 52.0798258,55.1157171 51.4128615,55.1157171 C51.403725,55.1157171 51.3945885,55.1157171 51.385452,55.1157171 C51.1935856,55.1157171 51.0017192,55.106629 50.8281257,55.015748 L47.1643907,53.1163344 L43.5006556,55.0430123 C43.3270621,55.1338933 43.1351957,55.188422 42.9433293,55.188422 C42.6966439,55.188422 42.4499585,55.1157171 42.2398191,54.9612194 C41.8743592,54.6976644 41.6916293,54.2432592 41.7647212,53.7979421 L42.459095,49.744648 L39.4988701,46.8728073 C39.1699562,46.5547237 39.0603183,46.0821423 39.1973657,45.6459133 C39.3344132,45.2187725 39.7090095,44.9006888 40.1658344,44.8370721 L44.2589848,44.2463454 L46.0862841,40.5565754 C46.4974264,39.7386461 47.8404914,39.7386461 48.2424972,40.5565754 Z M83.6190116,60.986632 C83.6738306,61.1502178 83.6281481,61.3228918 83.4908266,61.441128 L82.4950398,62.404467 L82.7325887,63.7676825 C82.7599982,63.9312684 82.6960427,64.0948542 82.5589953,64.1948234 C82.4859033,64.2492611 82.3945384,64.2766163 82.3031734,64.2766163 C82.2392179,64.2766163 82.1661259,64.2583492 82.1021705,64.2219968 L80.8687434,63.5767415 L79.6353164,64.2219968 C79.4891325,64.2947016 79.315539,64.2857044 79.1784916,64.1857353 C79.0414441,64.0857661 78.97758,63.9221803 79.0049895,63.7585944 L79.2425384,62.3953789 L78.2467517,61.431949 C78.1278859,61.3138037 78.0822034,61.1411297 78.1371137,60.986632 C78.1918413,60.8230461 78.3288888,60.7139889 78.4933457,60.6867246 L79.8730481,60.4867863 L80.4851933,59.2508042 C80.6313773,58.9508968 81.1247481,58.9508968 81.270932,59.2508042 L81.8830773,60.4867863 L83.2626883,60.6867246 C83.4270538,60.7139889 83.5641013,60.8321342 83.6190116,60.986632 Z M80.6404224,48.8812782 C80.7317874,49.0266878 80.7227422,49.1993618 80.6312859,49.3356833 L79.8820932,50.4989606 L80.4211465,51.7712951 C80.485102,51.9257928 80.4576011,52.0984668 80.3480545,52.2257002 C80.2931442,52.2984051 80.2110071,52.3438456 80.1196421,52.3620218 C80.0464588,52.380198 79.9825947,52.380198 79.9094113,52.3620218 L78.5664377,52.0075858 L77.5157406,52.907308 C77.3878297,53.0163652 77.2141449,53.0436295 77.0589158,52.9800128 C76.9035953,52.9163961 76.8030939,52.7709864 76.7939574,52.6074006 L76.7117289,51.2260089 L75.5239844,50.5080487 C75.3778004,50.4262558 75.295572,50.2626699 75.313845,50.099084 C75.3230728,49.9354982 75.4326194,49.7991766 75.5879398,49.7355599 L76.8853223,49.2357142 L77.2050997,47.8906749 C77.2781917,47.5725913 77.7532895,47.463534 77.9634289,47.7180009 L78.840624,48.7903971 L80.2292801,48.6722518 C80.3938284,48.6631637 80.5582853,48.7358685 80.6404224,48.8812782 Z M68.425018,40.9564519 C68.5529289,41.1745664 68.5529289,41.4472095 68.406745,41.6562359 L67.2646829,43.419328 L68.0869676,45.355094 C68.1874691,45.5913847 68.1417866,45.8549397 67.9773296,46.0457899 C67.8859647,46.1548471 67.7671902,46.227552 67.6301428,46.2548163 C67.5205048,46.2729925 67.4200034,46.2729925 67.3103654,46.2457282 L65.2729267,45.7095301 L63.6740398,47.0818337 C63.482082,47.2454195 63.2079871,47.2908601 62.9795747,47.1908909 C62.7511623,47.0909218 62.5958418,46.8728073 62.5775689,46.6183404 L62.4587944,44.5189885 L60.6589046,43.4284161 C60.4396287,43.3011826 60.3208542,43.064892 60.3391272,42.8104251 C60.3574002,42.5650463 60.5218571,42.3469318 60.7594061,42.2560507 L62.7237528,41.4926501 L63.2079871,39.4478268 C63.3267616,38.9661573 64.0485448,38.7934833 64.3683222,39.1842718 L65.7022507,40.8110423 L67.8036448,40.6383683 C68.0503302,40.6201921 68.297107,40.7383375 68.425018,40.9564519 Z M77.4701495,39.029774 C77.5432415,39.1388313 77.5432415,39.2842409 77.479286,39.3842101 L76.8854137,40.3021085 L77.3056925,41.3017999 C77.3605115,41.4199452 77.333102,41.5562668 77.2508736,41.6562359 C77.2051911,41.7107645 77.1412356,41.7471169 77.0681436,41.7652932 C77.0133247,41.7834694 76.9585057,41.7834694 76.9036867,41.7652932 L75.8437617,41.4926501 L75.0123406,42.2015221 C74.9119305,42.2833151 74.774883,42.3105794 74.6560172,42.2560507 C74.5372427,42.2106102 74.4551056,42.0924649 74.4458778,41.9652314 L74.3819223,40.874659 L73.450091,40.3111966 C73.3404531,40.2475799 73.2764062,40.1203464 73.2855427,39.993113 C73.2946792,39.8658795 73.3860442,39.7477342 73.5048186,39.7022937 L74.5189698,39.3024171 L74.7656552,38.2481971 C74.829702,37.9937302 75.204207,37.9119373 75.3687553,38.1118756 L76.063129,38.9570692 L77.1503721,38.8661882 C77.2781917,38.8571 77.406194,38.9207168 77.4701495,39.029774 Z" id="icon_stars"></path>
                            </g>
                        </g>
                    </g>
                </g>
            </g>
        </g>
    </g>
</svg>