<?xml version="1.0" encoding="UTF-8"?>
<svg width="56px" height="56px" viewBox="0 0 56 56" version="1.1" xmlns="http://www.w3.org/2000/svg" xmlns:xlink="http://www.w3.org/1999/xlink">
    <!-- Generator: sketchtool 51 (57462) - http://www.bohemiancoding.com/sketch -->
    <title>9FF04699-22E0-46CB-9D81-5678CBF15E05</title>
    <desc>Created with sketchtool.</desc>
    <defs></defs>
    <g id="Page-1" stroke="none" stroke-width="1" fill="none" fill-rule="evenodd">
        <g id="Test-Task" transform="translate(-492.000000, -1577.000000)">
            <rect fill="#FFFFFF" x="0" y="0" width="1600" height="2220"></rect>
            <g id="content" transform="translate(0.000000, 124.000000)" fill="#3D4252" fill-rule="nonzero">
                <g id="items" transform="translate(100.000000, 841.000000)">
                    <g id="row-3" transform="translate(0.000000, 512.000000)">
                        <g id="2" transform="translate(280.000000, 0.000000)">
                            <g id="icon" transform="translate(78.000000, 66.000000)">
                                <path d="M71.0984412,44.6174845 L59.5983505,56.1174598 L59.5983505,47.9745979 L43.9141938,47.9745979 L43.9141938,70.7870351 L34,70.7870351 L34,90 L52.9015588,90 L79.0711093,63.8304495 L90,63.8304495 L90,44.6174845 L71.0984412,44.6174845 Z M56.134433,51.4385155 L56.134433,59.5813773 L47.3781113,68.337699 L47.3781113,51.4385155 L56.134433,51.4385155 Z M86.5360825,60.366532 L77.6364701,60.366532 L51.4668041,86.5360825 L37.4639175,86.5360825 L37.4639175,74.2509526 L46.3635299,74.2509526 L72.5330804,48.0814021 L86.5360825,48.0814021 L86.5360825,60.366532 Z M51.7562722,45.6605856 C48.5414103,45.6605856 45.9260371,43.0449814 45.9260371,39.8302351 C45.9260371,36.6154887 48.5414103,34 51.7562722,34 C54.971134,34 57.5865072,36.6156041 57.5865072,39.8303505 C57.5865072,43.0450969 54.971134,45.6605856 51.7562722,45.6605856 Z M51.7562722,37.4639175 C50.4514144,37.4639175 49.3899546,38.5254928 49.3899546,39.8302351 C49.3899546,41.1349773 50.4514144,42.1965526 51.7562722,42.1965526 C53.0611299,42.1965526 54.1225897,41.1349773 54.1225897,39.8302351 C54.1225897,38.5254928 53.0611299,37.4639175 51.7562722,37.4639175 Z" id="icon_escalator"></path>
                            </g>
                        </g>
                    </g>
                </g>
            </g>
        </g>
    </g>
</svg>