<?xml version="1.0" encoding="UTF-8"?>
<svg width="46px" height="56px" viewBox="0 0 46 56" version="1.1" xmlns="http://www.w3.org/2000/svg" xmlns:xlink="http://www.w3.org/1999/xlink">
    <!-- Generator: sketchtool 51 (57462) - http://www.bohemiancoding.com/sketch -->
    <title>D7B3C7F0-9EB1-40C0-A53B-A704519D1582</title>
    <desc>Created with sketchtool.</desc>
    <defs></defs>
    <g id="Page-1" stroke="none" stroke-width="1" fill="none" fill-rule="evenodd">
        <g id="Test-Task" transform="translate(-1057.000000, -1321.000000)">
            <rect fill="#FFFFFF" x="0" y="0" width="1600" height="2220"></rect>
            <g id="content" transform="translate(0.000000, 124.000000)" fill="#3D4252" fill-rule="nonzero">
                <g id="items" transform="translate(100.000000, 841.000000)">
                    <g id="row-2" transform="translate(0.000000, 256.000000)">
                        <g id="4" transform="translate(840.000000, 0.000000)">
                            <g id="icon" transform="translate(78.000000, 66.000000)">
                                <path d="M83.8779602,34 C84.4975022,34 85,34.4995156 85,35.1155156 L85,88.8844844 C85,89.5004844 84.4976122,90 83.8780702,90 L40.1219298,90 C39.5023878,90 39,89.5004844 39,88.8844844 L39,35.1155156 C39,34.4995156 39.5023878,34 40.1219298,34 L83.8779602,34 Z M53.5853068,87.7689687 L53.5853068,63.1155156 L41.2438595,63.1155156 L41.2438595,87.7689687 L53.5853068,87.7689687 Z M53.5853068,60.8844844 L53.5853068,36.2310313 L41.2438595,36.2310313 L41.2438595,60.8844844 L53.5853068,60.8844844 Z M68.1707237,87.7689687 L68.1707237,63.1155156 L55.8291663,63.1155156 L55.8291663,87.7689687 L68.1707237,87.7689687 Z M68.1707237,60.8844844 L68.1707237,36.2310313 L55.8291663,36.2310313 L55.8291663,60.8844844 L68.1707237,60.8844844 Z M82.7560305,87.7689687 L82.7560305,63.1155156 L70.4145832,63.1155156 L70.4145832,87.7689687 L82.7560305,87.7689687 Z M82.7560305,60.8844844 L82.7560305,36.2310313 L70.4145832,36.2310313 L70.4145832,60.8844844 L82.7560305,60.8844844 Z M44.9619913,38.0392188 C45.4001368,38.4749688 45.4001368,39.1813125 44.9619913,39.6169531 L44.4836943,40.0925156 C44.2645665,40.3102813 43.9773464,40.4192187 43.6902362,40.4192187 C43.403126,40.4192187 43.1160159,40.3102813 42.8968881,40.0925156 C42.4587426,39.6567656 42.4587426,38.9504219 42.8968881,38.5147812 L43.375185,38.0392188 C43.8135506,37.6036875 44.5237357,37.6036875 44.9619913,38.0392188 Z M48.7694462,39.0635156 C49.2075917,39.4992656 49.2075917,40.2056094 48.7694462,40.6413594 L45.4218076,43.9698594 C45.2026798,44.187625 44.9155696,44.2965625 44.6284594,44.2965625 C44.3413493,44.2965625 44.0542391,44.187625 43.8351113,43.9698594 C43.3969658,43.5341094 43.3969658,42.8277656 43.8351113,42.392125 L47.18275,39.0635156 C47.6210055,38.627875 48.3311906,38.627875 48.7694462,39.0635156 Z M59.5830494,38.0392188 C60.0211949,38.4749688 60.0211949,39.1813125 59.5830494,39.6169531 L59.1047524,40.0925156 C58.8856246,40.3102813 58.5986245,40.4192187 58.3114043,40.4192187 C58.0241841,40.4192187 57.7371839,40.3102813 57.5179462,40.0925156 C57.0798007,39.6567656 57.0798007,38.9504219 57.5179462,38.5147812 L57.9962431,38.0392188 C58.4346087,37.6036875 59.1447938,37.6036875 59.5830494,38.0392188 Z M63.3906143,39.0634062 C63.8287598,39.4991562 63.8287598,40.2055 63.3906143,40.6411406 L60.0428656,43.9696406 C59.8237379,44.1874062 59.5366277,44.2963437 59.2495175,44.2963437 C58.9624074,44.2963437 58.6752972,44.1874062 58.4561694,43.9696406 C58.0180239,43.534 58.0180239,42.8276562 58.4560594,42.3919062 L61.803808,39.0634062 C62.2423936,38.627875 62.9525788,38.6280937 63.3906143,39.0634062 Z M74.1684662,38.0392188 C74.6065017,38.4749688 74.6065017,39.1813125 74.1684662,39.6169531 L73.6901692,40.0925156 C73.4710415,40.3102813 73.1840413,40.4192187 72.8968211,40.4192187 C72.6096009,40.4192187 72.3226008,40.3102813 72.103363,40.0925156 C71.6652175,39.6567656 71.6652175,38.9504219 72.103363,38.5147812 L72.58166,38.0392188 C73.0200255,37.6036875 73.7302107,37.6036875 74.1684662,38.0392188 Z M77.9760311,39.0634062 C78.4140666,39.4991562 78.4140666,40.2055 77.9760311,40.6411406 L74.6282825,43.9696406 C74.4091547,44.1874062 74.1220445,44.2963437 73.8349344,44.2963437 C73.5478242,44.2963437 73.260714,44.1874062 73.0415863,43.9696406 C72.6034407,43.534 72.6034407,42.8276562 73.0414763,42.3919062 L76.3892249,39.0634062 C76.8277004,38.627875 77.5378856,38.6280937 77.9760311,39.0634062 Z M44.9619913,64.9237031 C45.4001368,65.3594531 45.4001368,66.0657969 44.9619913,66.5014375 L44.4836943,66.977 C44.2645665,67.1947656 43.9773464,67.3037031 43.6902362,67.3037031 C43.403126,67.3037031 43.1160159,67.1947656 42.8968881,66.977 C42.4587426,66.54125 42.4587426,65.8349063 42.8968881,65.3992656 L43.375185,64.9237031 C43.8135506,64.4881719 44.5237357,64.4881719 44.9619913,64.9237031 Z M48.7694462,65.948 C49.2075917,66.38375 49.2075917,67.0900937 48.7694462,67.5257344 L45.4218076,70.8542344 C45.2026798,71.072 44.9155696,71.1809375 44.6284594,71.1809375 C44.3413493,71.1809375 44.0542391,71.072 43.8351113,70.8542344 C43.3969658,70.4184844 43.3969658,69.7121406 43.8351113,69.2765 L47.18275,65.948 C47.6210055,65.5123594 48.3311906,65.5123594 48.7694462,65.948 Z M59.5830494,64.9237031 C60.0211949,65.3594531 60.0211949,66.0657969 59.5830494,66.5014375 L59.1047524,66.977 C58.8856246,67.1947656 58.5984045,67.3037031 58.3112943,67.3037031 C58.0241841,67.3037031 57.7370739,67.1947656 57.5179462,66.977 C57.0798007,66.54125 57.0798007,65.8349063 57.5179462,65.3992656 L57.9962431,64.9237031 C58.4346087,64.4881719 59.1447938,64.4881719 59.5830494,64.9237031 Z M63.3906143,65.948 C63.8287598,66.38375 63.8287598,67.0900937 63.3906143,67.5257344 L60.0428656,70.8542344 C59.8237379,71.072 59.5366277,71.1809375 59.2495175,71.1809375 C58.9624074,71.1809375 58.6752972,71.072 58.4561694,70.8542344 C58.0180239,70.4184844 58.0180239,69.7121406 58.4561694,69.2765 L61.8039181,65.948 C62.2423936,65.5123594 62.9525788,65.5125781 63.3906143,65.948 Z M74.1684662,64.9237031 C74.6065017,65.3594531 74.6065017,66.0657969 74.1684662,66.5014375 L73.6901692,66.977 C73.4710415,67.1947656 73.1840413,67.3037031 72.8968211,67.3037031 C72.6096009,67.3037031 72.3226008,67.1947656 72.103363,66.977 C71.6652175,66.54125 71.6652175,65.8349063 72.103363,65.3992656 L72.58166,64.9237031 C73.0200255,64.4881719 73.7302107,64.4881719 74.1684662,64.9237031 Z M77.9760311,65.9478906 C78.4140666,66.3836406 78.4140666,67.0899844 77.9760311,67.525625 L77.8275258,67.6732813 C77.6083981,67.8910469 77.3213979,67.9999844 77.0341777,67.9999844 C76.7469576,67.9999844 76.4599574,67.8911562 76.2407196,67.6732813 C75.8025741,67.2375312 75.8025741,66.5311875 76.2407196,66.0955469 L76.3892249,65.9478906 C76.8275904,65.5123594 77.5377756,65.5123594 77.9760311,65.9478906 Z M75.6957603,68.2153438 C76.1339058,68.6510938 76.1339058,69.3573281 75.6956503,69.7929688 L74.6280625,70.8542344 C74.4090447,71.072 74.1219345,71.1809375 73.8348244,71.1809375 C73.5477142,71.1809375 73.260494,71.072 73.0414763,70.854125 C72.6033307,70.418375 72.6033307,69.7121406 73.0415863,69.2765 L74.1090641,68.2152344 C74.5473196,67.7797031 75.2578348,67.7798125 75.6957603,68.2153438 Z" id="icon_wall"></path>
                            </g>
                        </g>
                    </g>
                </g>
            </g>
        </g>
    </g>
</svg>