<?xml version="1.0" encoding="UTF-8"?>
<svg width="56px" height="40px" viewBox="0 0 56 40" version="1.1" xmlns="http://www.w3.org/2000/svg" xmlns:xlink="http://www.w3.org/1999/xlink">
    <!-- Generator: sketchtool 51 (57462) - http://www.bohemiancoding.com/sketch -->
    <title>956CDE66-8A08-40CD-B179-F7515C589133</title>
    <desc>Created with sketchtool.</desc>
    <defs></defs>
    <g id="Page-1" stroke="none" stroke-width="1" fill="none" fill-rule="evenodd">
        <g id="Test-Task" transform="translate(-772.000000, -1073.000000)">
            <rect fill="#FFFFFF" x="0" y="0" width="1600" height="2220"></rect>
            <g id="content" transform="translate(0.000000, 124.000000)" fill="#3D4252">
                <g id="items" transform="translate(100.000000, 841.000000)">
                    <g id="row-1">
                        <g id="3" transform="translate(560.000000, 0.000000)">
                            <g id="icon" transform="translate(78.000000, 66.000000)">
                                <path d="M61,62.8 L61,51 L38,51 L38,78 L61,78 L61,74 L53,74 L61,62.8 Z M65,74 L65,78 L86,78 L86,58 L65,58 L65,62.8 L73,74 L65,74 Z M34,42 L90,42 L90,82 L34,82 L34,42 Z M38,46 L38,49 L61,49 L61,46 L38,46 Z M65,46 L65,56 L86,56 L86,46 L65,46 Z M57,72 L69,72 L63,64 L57,72 Z" id="icon_showcase"></path>
                            </g>
                        </g>
                    </g>
                </g>
            </g>
        </g>
    </g>
</svg>