<?xml version="1.0" encoding="UTF-8"?>
<svg width="56px" height="32px" viewBox="0 0 56 32" version="1.1" xmlns="http://www.w3.org/2000/svg" xmlns:xlink="http://www.w3.org/1999/xlink">
    <!-- Generator: sketchtool 51 (57462) - http://www.bohemiancoding.com/sketch -->
    <title>630BA1F4-F267-436F-97DC-0AC4EE3A49D0</title>
    <desc>Created with sketchtool.</desc>
    <defs></defs>
    <g id="Page-1" stroke="none" stroke-width="1" fill="none" fill-rule="evenodd">
        <g id="Test-Task" transform="translate(-1332.000000, -1591.000000)">
            <rect fill="#FFFFFF" x="0" y="0" width="1600" height="2220"></rect>
            <g id="content" transform="translate(0.000000, 124.000000)" fill="#3D4252">
                <g id="items" transform="translate(100.000000, 841.000000)">
                    <g id="row-3" transform="translate(0.000000, 512.000000)">
                        <g id="5" transform="translate(1120.000000, 0.000000)">
                            <g id="icon" transform="translate(78.000000, 66.000000)">
                                <path d="M45.0422535,80 C43.2721124,80 41.7197501,79.7395056 40.3851199,79.218509 C39.0504897,78.6975124 37.9336317,78.0599866 37.0345124,77.3059126 C36.1353931,76.5518386 35.4329667,75.7635003 34.9272121,74.940874 C34.4214575,74.1182478 34.1123899,73.419026 34,72.8431877 L34,69.7583548 L39.5211268,69.7583548 C39.6054192,70.0051426 39.7529287,70.3753189 39.9636598,70.8688946 C40.1743909,71.3624703 40.4904828,71.8491835 40.911945,72.3290488 C41.3334071,72.8089141 41.8742754,73.2339313 42.5345662,73.6041131 C43.1948569,73.9742949 44.0026473,74.159383 44.9579615,74.159383 C46.3909329,74.159383 47.4867181,73.7686414 48.24535,72.9871465 C49.0039819,72.2056516 49.3832921,71.2527905 49.3832921,70.1285347 C49.3832921,68.976858 48.9969576,68.0514174 48.224277,67.3521851 C47.4515963,66.6529528 46.1942531,66.3033419 44.4522094,66.3033419 L40.996237,66.3033419 L40.996237,61.1208226 L43.9464574,61.1208226 C45.3794287,61.1208226 46.4541411,60.7643566 47.1706268,60.0514139 C47.8871125,59.3384712 48.24535,58.4335959 48.24535,57.3367609 C48.24535,56.239926 47.8941368,55.3761814 47.1916998,54.7455013 C46.4892629,54.1148212 45.5761085,53.7994859 44.4522094,53.7994859 C43.6373826,53.7994859 42.9490047,53.9571535 42.3870552,54.2724936 C41.8251056,54.5878336 41.382577,54.9580099 41.059456,55.3830334 C40.736335,55.808057 40.4904857,56.2399293 40.3219009,56.6786632 C40.153316,57.1173972 40.0549763,57.460153 40.0268788,57.7069409 L34.6321901,57.7069409 L34.6321901,54.622108 C34.74458,54.1011114 35.011502,53.4635856 35.4329642,52.7095116 C35.8544264,51.9554375 36.4655373,51.2287953 37.2663154,50.529563 C38.0670936,49.8303307 39.0856119,49.2339356 40.3219009,48.7403599 C41.5581899,48.2467842 43.0473339,48 44.7893775,48 C46.3066413,48 47.7114941,48.1987984 49.0039781,48.596401 C50.296462,48.9940037 51.3992715,49.5561232 52.3124395,50.2827763 C53.2256075,51.0094295 53.9420825,51.8800292 54.4618858,52.8946015 C54.9816892,53.9091739 55.2415869,55.0471231 55.2415869,56.3084833 C55.2415869,57.898894 54.8271553,59.3110478 53.9982798,60.5449871 C53.1694042,61.7789265 52.0244491,62.6700915 50.5633803,63.218509 C52.3335214,63.6298221 53.7453985,64.4730013 54.7990539,65.748072 C55.8527093,67.0231426 56.3795291,68.5929641 56.3795291,70.4575835 C56.3795291,73.2545127 55.3469623,75.5441213 53.2817977,77.3264781 C51.216633,79.108835 48.4701458,80 45.0422535,80 Z M63.1529943,79.4652956 L63.1529943,48.6169666 L74.2373938,48.6169666 C76.6537769,48.6169666 78.838323,49.0214184 80.7910977,49.8303342 C82.7438724,50.63925 84.4015987,51.7292134 85.7643264,53.1002571 C87.1270541,54.4713008 88.1736694,56.0959632 88.9042038,57.9742931 C89.6347383,59.8526229 90,61.8337514 90,63.9177378 C90,66.056566 89.6347383,68.07197 88.9042038,69.9640103 C88.1736694,71.8560506 87.1270541,73.5012784 85.7643264,74.8997429 C84.4015987,76.2982075 82.7438724,77.4087362 80.7910977,78.2313625 C78.838323,79.0539887 76.6537769,79.4652956 74.2373938,79.4652956 L63.1529943,79.4652956 Z M70.1492313,73.6658098 L74.1109558,73.6658098 C75.4877322,73.6658098 76.7169784,73.4121705 77.7987313,72.9048843 C78.8804842,72.3975981 79.7866143,71.7052315 80.5171487,70.8277635 C81.2476831,69.9502955 81.8096242,68.9151731 82.2029889,67.722365 C82.5963536,66.529557 82.793033,65.2613606 82.793033,63.9177378 C82.793033,62.6289567 82.5963536,61.401891 82.2029889,60.2365039 C81.8096242,59.0711167 81.2476831,58.0634147 80.5171487,57.2133676 C79.7866143,56.3633205 78.8804842,55.6846641 77.7987313,55.1773779 C76.7169784,54.6700917 75.4877322,54.4164524 74.1109558,54.4164524 L70.1492313,54.4164524 L70.1492313,73.6658098 Z" id="icon_3d"></path>
                            </g>
                        </g>
                    </g>
                </g>
            </g>
        </g>
    </g>
</svg>