<?xml version="1.0" encoding="UTF-8"?>
<svg width="56px" height="48px" viewBox="0 0 56 48" version="1.1" xmlns="http://www.w3.org/2000/svg" xmlns:xlink="http://www.w3.org/1999/xlink">
    <!-- Generator: sketchtool 51 (57462) - http://www.bohemiancoding.com/sketch -->
    <title>F65B8595-3782-480A-B3BB-86BF7974C7F6</title>
    <desc>Created with sketchtool.</desc>
    <defs></defs>
    <g id="Page-1" stroke="none" stroke-width="1" fill="none" fill-rule="evenodd">
        <g id="Test-Task" transform="translate(-1332.000000, -1325.000000)">
            <rect fill="#FFFFFF" x="0" y="0" width="1600" height="2220"></rect>
            <g id="content" transform="translate(0.000000, 124.000000)" fill="#3D4252" fill-rule="nonzero">
                <g id="items" transform="translate(100.000000, 841.000000)">
                    <g id="row-2" transform="translate(0.000000, 256.000000)">
                        <g id="5" transform="translate(1120.000000, 0.000000)">
                            <g id="icon" transform="translate(78.000000, 66.000000)">
                                <path d="M90,55.5997794 C90,48.916108 87.4838281,43.7321097 81.3327969,40.8551119 C75.9537344,38.33918 68.5538594,38 62.0247187,38 C55.4955781,38 48.0955937,38.33918 42.7165313,40.8551119 C36.5659375,43.732003 34.0494375,48.9155742 34.0494375,55.5999929 L34.0494375,60.3999715 L36.470125,60.3999715 L34,65.9640393 L35.4232969,66.6458156 C36.1321563,66.9857429 36.7207031,67.38567 37.3277344,67.83791 L37.3277344,73.1999858 L34.0493281,73.1999858 L34.0493281,74.8000142 C34.0493281,80.9757163 39.245625,86 45.6327969,86 L78.5255781,86 C84.8524844,86 89.9997812,80.9473179 89.9997812,74.8000142 L89.9997812,73.1999858 L86.721375,73.1999858 L86.721375,67.6888715 C87.2494375,67.3187308 87.7575937,67.0007963 88.3863906,66.7201214 L89.979875,66.0090925 L87.5537188,60.3998648 L90,60.3998648 L90,55.5997794 Z M78.5257969,82.8000498 L45.6329063,82.8000498 C41.622125,82.8000498 38.2662812,80.0364322 37.4946406,76.3893666 L86.5569844,76.3893666 C85.7954062,80.0363255 82.4836406,82.8000498 78.5257969,82.8000498 Z M83.1424063,66.2915823 C82.1002813,67.0176645 80.3397813,66.6594811 79.7720156,65.8280257 C78.7348125,64.3095627 76.9790156,63.4029475 75.075125,63.4029475 C73.171125,63.4029475 71.4154375,64.3095627 70.3782344,65.8280257 C69.4712969,67.1558134 67.4663438,67.1707599 66.5493438,65.8280257 C65.5121406,64.3095627 63.7766875,63.4029475 61.9070313,63.4029475 C60.037375,63.4029475 58.3019219,64.3095627 57.2647188,65.8280257 C56.3577813,67.1558134 54.3528281,67.1707599 53.4358281,65.8280257 C52.398625,64.3095627 50.6631719,63.4029475 48.7935156,63.4029475 C46.9238594,63.4029475 45.1884062,64.3095627 44.1513125,65.8280257 C43.3761719,66.9627893 41.7492187,67.1201552 40.7268906,66.3631123 C39.8650156,65.7247877 39.1112031,65.0979933 38.2123594,64.5235119 L40.0428594,60.4000783 L83.9949844,60.4000783 L85.7554844,64.4701314 C84.8110312,65.0359651 84.0484687,65.6600905 83.1424063,66.2915823 Z M83.4432969,69.6498592 L83.4432969,73.2001993 L40.6061406,73.2001993 L40.6061406,73.2000925 L40.6061406,69.8134172 C42.8837656,70.4437347 45.4623906,69.6777239 46.8792344,67.6031423 C47.3133438,66.9675936 48.0111562,66.6030044 48.7937344,66.6030044 C49.5764219,66.6030044 50.274125,66.9674868 50.7082344,67.6031423 C52.9126875,70.8307436 57.7827188,70.8389642 59.99275,67.6031423 C60.4268594,66.9675936 61.1246719,66.6030044 61.90725,66.6030044 C62.6899375,66.6030044 63.3876406,66.9674868 63.82175,67.6031423 C66.0260938,70.8306369 70.896125,70.839071 73.1062656,67.6031423 C73.540375,66.9675936 74.2580938,66.6030044 75.0753438,66.6030044 C75.8925937,66.6030044 76.6104219,66.9674868 77.0444219,67.6031423 C78.3097813,69.4563014 81.0371562,70.3404967 83.4432969,69.6498592 Z M86.7215937,57.2000214 L37.3277344,57.2000214 L37.3277344,55.5999929 C37.3277344,49.6809445 39.4902969,45.9125983 44.1331562,43.7409709 C48.9202812,41.5019773 55.8637344,41.1999502 62.0247187,41.1999502 C68.1857031,41.1999502 75.1290469,41.5018705 79.9161719,43.7409709 C84.55925,45.9125983 86.7215937,49.6809445 86.7215937,55.5999929 L86.7215937,57.2000214 Z M47.2718906,50.8004413 L47.2718906,54.0004982 L50.5502969,54.0004982 L50.5502969,50.8004413 L47.2718906,50.8004413 Z M60.3852969,50.8004413 L60.3852969,54.0004982 L63.6637031,54.0004982 L63.6637031,50.8004413 L60.3852969,50.8004413 Z M73.4987031,50.8004413 L73.4987031,54.0004982 L76.7771094,54.0004982 L76.7771094,50.8004413 L73.4987031,50.8004413 Z M66.942,44.4004342 L66.942,47.6004911 L70.2204063,47.6004911 L70.2204063,44.4004342 L66.942,44.4004342 Z M53.8285937,44.4004342 L53.8285937,47.6004911 L57.107,47.6004911 L57.107,44.4004342 L53.8285937,44.4004342 Z" id="icon_food"></path>
                            </g>
                        </g>
                    </g>
                </g>
            </g>
        </g>
    </g>
</svg>