<?xml version="1.0" encoding="UTF-8"?>
<svg width="16px" height="16px" viewBox="0 0 16 16" version="1.1" xmlns="http://www.w3.org/2000/svg" xmlns:xlink="http://www.w3.org/1999/xlink">
    <!-- Generator: sketchtool 51 (57462) - http://www.bohemiancoding.com/sketch -->
    <title>1B1BD804-1FF4-4BD9-BCC3-C3860EE8121A</title>
    <desc>Created with sketchtool.</desc>
    <defs></defs>
    <g id="Page-1" stroke="none" stroke-width="1" fill="none" fill-rule="evenodd">
        <g id="Test-Task" transform="translate(-1270.000000, -2073.000000)">
            <rect fill="0" x="0" y="0" width="1600" height="2220"></rect>
            <g id="footer" transform="translate(0.000000, 2005.000000)" fill="#A8F0DE" fill-rule="nonzero">
                <g id="items" transform="translate(102.000000, 63.000000)">
                    <g id="5" transform="translate(1165.000000, 0.000000)">
                        <g id="phone" transform="translate(3.000000, 0.000000)">
                            <path d="M3.24232796,15.6357232 C4.82642878,17.5221716 6.73334007,19.0074596 8.90981473,20.0584335 C9.73847251,20.4496477 10.8466775,20.9138002 12.0813443,20.9933692 C12.157887,20.9966846 12.2311017,21 12.3076444,21 C13.1363022,21 13.8018908,20.7148777 14.3443455,20.1280564 C14.3476734,20.124741 14.3543293,20.1181102 14.3576573,20.1114795 C14.5506779,19.8794032 14.7703222,19.6705346 14.9999502,19.4484045 C15.1563636,19.2992126 15.3161048,19.14339 15.4691902,18.984252 C16.178042,18.2482387 16.178042,17.3133029 15.4625343,16.6004973 L13.4624406,14.6079569 C13.1229904,14.2565271 12.7169814,14.0708661 12.2910047,14.0708661 C11.865028,14.0708661 11.455691,14.2565271 11.106257,14.6046415 L9.91485348,15.7915458 C9.80503137,15.7285537 9.69188131,15.6721923 9.58538714,15.6191463 C9.45226942,15.5528388 9.32913553,15.4898467 9.21931342,15.4202238 C8.13440403,14.7339412 7.14933293,13.8387899 6.20752509,12.6883547 C5.73162925,12.0882719 5.41214673,11.5843349 5.18917456,11.0704517 C5.50200119,10.7886448 5.79486017,10.4935765 6.07773531,10.2051388 C6.1775736,10.1023622 6.28073983,9.99958558 6.38390606,9.89680895 C6.74332389,9.53874845 6.93634458,9.12432656 6.93634458,8.70327393 C6.93634458,8.2822213 6.74665184,7.86779942 6.38390606,7.50973891 L5.39217908,6.52175715 C5.27570107,6.40571902 5.16587896,6.29299627 5.0527289,6.17695814 C4.83308467,5.95151264 4.60345661,5.71943639 4.37715649,5.51056776 C4.03437837,5.17571488 3.63169728,5 3.20572059,5 C2.78307184,5 2.3770628,5.17571488 2.02097291,5.51388313 L0.776322266,6.7538334 C0.323722031,7.20472441 0.0674704273,7.75176129 0.0142233408,8.38499793 C-0.0490075744,9.17737257 0.0974219134,10.0194778 0.476807405,11.037298 C1.05919741,12.6121011 1.93777434,14.0741815 3.24232796,15.6357232 Z M0.82624141,8.4546208 C0.866176724,8.01367592 1.03590181,7.64566929 1.35538433,7.32739329 L2.59337909,6.09407377 C2.78639978,5.90841276 2.99938813,5.81226689 3.20572059,5.81226689 C3.4087251,5.81226689 3.61505756,5.90841276 3.80475031,6.10070452 C4.02772248,6.30625777 4.23738289,6.52175715 4.463683,6.75051803 C4.57683306,6.86655615 4.69331107,6.98259428 4.80978907,7.10194778 L5.80151605,8.08992955 C6.00784851,8.2954828 6.11434269,8.50435143 6.11434269,8.70990468 C6.11434269,8.91545794 6.00784851,9.12432656 5.80151605,9.32987982 C5.69834982,9.43265644 5.59518359,9.53874845 5.49201736,9.64152507 C5.18251867,9.95317033 4.89298764,10.2482387 4.57350512,10.5300456 C4.56684923,10.5366763 4.56352129,10.5399917 4.55686541,10.5466225 C4.28064614,10.8217986 4.3239094,11.0837132 4.39046826,11.2826357 C4.3937962,11.2925818 4.39712415,11.2992126 4.40045209,11.3091587 C4.65670369,11.9225031 5.01279358,12.5060091 5.56856005,13.2022379 C6.56694292,14.4289266 7.61857288,15.3804393 8.77669701,16.1131372 C8.91979855,16.2059677 9.07288393,16.2789059 9.21598547,16.3518442 C9.34910319,16.4181517 9.47223708,16.4811438 9.58205919,16.5507667 C9.59537096,16.5573974 9.60535479,16.5640282 9.61866656,16.5706589 C9.72848868,16.6270203 9.83498285,16.6535433 9.94147703,16.6535433 C10.2077125,16.6535433 10.3807655,16.4844592 10.4373405,16.4280978 L11.6819912,15.1881475 C11.8750119,14.9958558 12.0846723,14.8930792 12.2910047,14.8930792 C12.5439284,14.8930792 12.7502608,15.0489018 12.8800506,15.1881475 L14.8868002,17.1840033 C15.2861533,17.5818483 15.2828254,18.0128471 14.8768164,18.4338997 C14.7370428,18.5830916 14.5906133,18.7256527 14.4341999,18.8748446 C14.2012439,19.1002901 13.9583041,19.3323663 13.7386599,19.594281 C13.3559464,20.0053875 12.9000183,20.1976792 12.3109724,20.1976792 C12.2543973,20.1976792 12.1944944,20.1943639 12.1379193,20.1910485 C11.0463541,20.1214256 10.0313315,19.6970576 9.26923256,19.3356817 C7.19925207,18.3377538 5.38219525,16.9220887 3.87463711,15.1251554 C2.63331441,13.636552 1.79800074,12.2507252 1.24556222,10.7654372 C0.902784096,9.85370908 0.772994323,9.12101119 0.82624141,8.4546208 Z" id="icon_phone"></path>
                        </g>
                    </g>
                </g>
            </g>
        </g>
    </g>
</svg>