<?xml version="1.0" encoding="UTF-8"?>
<svg width="56px" height="54px" viewBox="0 0 56 54" version="1.1" xmlns="http://www.w3.org/2000/svg" xmlns:xlink="http://www.w3.org/1999/xlink">
    <!-- Generator: sketchtool 51 (57462) - http://www.bohemiancoding.com/sketch -->
    <title>BDEAF287-098D-4AFA-A90A-B16FA5D5B776</title>
    <desc>Created with sketchtool.</desc>
    <defs></defs>
    <g id="Page-1" stroke="none" stroke-width="1" fill="none" fill-rule="evenodd">
        <g id="Test-Task" transform="translate(-1052.000000, -1066.000000)">
            <rect fill="#FFFFFF" x="0" y="0" width="1600" height="2220"></rect>
            <g id="content" transform="translate(0.000000, 124.000000)" fill="#3D4252" fill-rule="nonzero">
                <g id="items" transform="translate(100.000000, 841.000000)">
                    <g id="row-1">
                        <g id="4" transform="translate(840.000000, 0.000000)">
                            <g id="icon" transform="translate(78.000000, 66.000000)">
                                <path d="M84.5216636,45.8000352 L44.9565396,45.8000352 L44.9565396,42.0600166 L88.3214634,38.5941653 C89.3266204,38.5138449 90.0755116,37.6454145 89.9939178,36.6546169 C89.9124334,35.6637114 89.0310889,34.9251951 88.02626,35.0060546 L42.9827569,38.6060247 C42.0346936,38.6817091 41.3042868,39.4622723 41.3042868,40.4000261 L41.3042868,45.8000352 L39.4782698,45.8000352 C36.4575488,45.8000352 34,48.2224763 34,51.2000443 L34,83.5999909 C34,86.577559 36.4575488,89 39.4782698,89 L84.5216636,89 C87.5423847,89 89.9999334,86.577559 89.9999334,83.5999909 L89.9999334,51.2000443 C89.9999334,48.2224763 87.5423847,45.8000352 84.5216636,45.8000352 Z M86.34779,83.5999909 C86.34779,84.5925136 85.5285706,85.4000299 84.5216636,85.4000299 L39.4782698,85.4000299 C38.4713628,85.4000299 37.6521434,84.5925136 37.6521434,83.5999909 L37.6521434,51.2000443 C37.6521434,50.2075216 38.4713628,49.4000053 39.4782698,49.4000053 L84.5216636,49.4000053 C85.5285706,49.4000053 86.34779,50.2075216 86.34779,51.2000443 L86.34779,83.5999909 Z M80.8695202,53.0000833 L43.1304132,53.0000833 C42.121975,53.0000833 41.3042868,53.8059824 41.3042868,54.8001222 L41.3042868,65.6001404 C41.3042868,66.5941724 42.1218656,67.4001793 43.1304132,67.4001793 L80.8695202,67.4001793 C81.8779585,67.4001793 82.6956466,66.5942802 82.6956466,65.6001404 L82.6956466,54.8000144 C82.6955372,53.8059824 81.8779585,53.0000833 80.8695202,53.0000833 Z M68.0869635,63.7999936 L44.9565396,63.7999936 L44.9565396,56.6000534 L68.0869635,56.6000534 L68.0869635,63.7999936 Z M79.0433938,63.7999936 L71.739107,63.7999936 L71.739107,56.6000534 L79.0433938,56.6000534 L79.0433938,63.7999936 Z M77.2173768,71.0000416 C74.1966557,71.0000416 71.739107,73.4224827 71.739107,76.4000507 C71.739107,79.3776187 74.1966557,81.8000598 77.2173768,81.8000598 C80.2380978,81.8000598 82.6956466,79.3776187 82.6956466,76.4000507 C82.6956466,73.4224827 80.2379885,71.0000416 77.2173768,71.0000416 Z M77.2173768,78.1999819 C76.2104698,78.1999819 75.3912504,77.3924656 75.3912504,76.3999429 C75.3912504,75.4074202 76.2104698,74.5999039 77.2173768,74.5999039 C78.2242838,74.5999039 79.0435032,75.4074202 79.0435032,76.3999429 C79.0435032,77.3924656 78.2242838,78.1999819 77.2173768,78.1999819 Z M66.2608372,71.0000416 L43.1304132,71.0000416 C42.121975,71.0000416 41.3042868,71.8059407 41.3042868,72.8000806 C41.3042868,73.7941126 42.1218656,74.6001196 43.1304132,74.6001196 L66.2608372,74.6001196 C67.2692754,74.6001196 68.0869635,73.7942205 68.0869635,72.8000806 C68.0868542,71.8059407 67.2692754,71.0000416 66.2608372,71.0000416 Z M66.2608372,78.1999819 L43.1304132,78.1999819 C42.121975,78.1999819 41.3042868,79.0058809 41.3042868,80.0000208 C41.3042868,80.9940529 42.1218656,81.8000598 43.1304132,81.8000598 L66.2608372,81.8000598 C67.2692754,81.8000598 68.0869635,80.9941607 68.0869635,80.0000208 C68.0868542,79.0058809 67.2692754,78.1999819 66.2608372,78.1999819 Z" id="icon_radio"></path>
                            </g>
                        </g>
                    </g>
                </g>
            </g>
        </g>
    </g>
</svg>