<?xml version="1.0" encoding="UTF-8"?>
<svg width="56px" height="54px" viewBox="0 0 56 54" version="1.1" xmlns="http://www.w3.org/2000/svg" xmlns:xlink="http://www.w3.org/1999/xlink">
    <!-- Generator: sketchtool 51 (57462) - http://www.bohemiancoding.com/sketch -->
    <title>A197ACBF-411D-4C8B-811E-2CE2E8B670F2</title>
    <desc>Created with sketchtool.</desc>
    <defs></defs>
    <g id="Page-1" stroke="none" stroke-width="1" fill="none" fill-rule="evenodd">
        <g id="Test-Task" transform="translate(-772.000000, -1578.000000)">
            <rect fill="#FFFFFF" x="0" y="0" width="1600" height="2220"></rect>
            <g id="content" transform="translate(0.000000, 124.000000)" fill="#3D4252" fill-rule="nonzero">
                <g id="items" transform="translate(100.000000, 841.000000)">
                    <g id="row-3" transform="translate(0.000000, 512.000000)">
                        <g id="3" transform="translate(560.000000, 0.000000)">
                            <g id="icon" transform="translate(78.000000, 66.000000)">
                                <path d="M89.8675542,44.0898533 C89.0755697,39.2191673 84.7570064,35.4381035 79.8983493,35.0064572 C79.8501149,35.0020794 79.8016618,35 79.7532087,35 L44.2535774,35 C44.2051243,35 44.1566711,35.0021889 44.1084367,35.0064572 C38.450467,35.5137291 33.6270287,40.4884962 34.0227475,46.3092638 C34.2645756,49.8653112 36.5117948,53.3093976 39.8002641,54.7295401 C40.068561,54.8454411 40.3436392,54.9479899 40.6240768,55.037296 L40.6240768,58.8436413 C40.6240768,59.7500547 41.35853,60.4849697 42.2643739,60.4849697 L43.3167804,60.4849697 L43.3167804,87.3586716 C43.3167804,88.265085 44.0512336,89 44.9570775,89 L79.0494898,89 C79.9553337,89 80.6897869,88.265085 80.6897869,87.3586716 L80.6897869,60.4850792 L81.7421934,60.4850792 C82.6480373,60.4850792 83.3824905,59.7501642 83.3824905,58.8437508 L83.3824905,55.0374055 C85.6468816,54.315952 87.5851163,52.6657587 88.7464602,50.5992412 C89.8503823,48.6350536 90.2286011,46.309811 89.8675542,44.0898533 Z M51.7463131,85.7174526 L46.5975934,85.7174526 L46.5975934,60.4850792 L51.7463131,60.4850792 L51.7463131,85.7174526 Z M60.3630959,85.7174526 L55.0269074,85.7174526 L55.0269074,60.4850792 L60.3630959,60.4850792 L60.3630959,85.7174526 Z M68.9798786,85.7174526 L63.6436902,85.7174526 L63.6436902,60.4850792 L68.9798786,60.4850792 L68.9798786,85.7174526 Z M77.409302,85.7173432 L72.2605823,85.7173432 L72.2605823,60.4850792 L77.409302,60.4850792 L77.409302,85.7173432 Z M80.102115,57.2025318 L43.9048898,57.2025318 L43.9048898,57.2024224 L43.9048898,55.4466158 C44.0885305,55.4350147 44.2722805,55.4183793 44.4562493,55.3955055 C45.2039369,55.3023688 45.9457183,55.1061361 46.6611403,54.8120607 C47.3392654,54.5333074 47.9856718,54.1589002 48.5822032,53.6993458 C48.5894219,53.6937641 48.5963125,53.6879636 48.6035313,53.682382 L75.4034735,53.682382 C75.4105829,53.6879636 75.4175829,53.6937641 75.4246923,53.6993458 C76.021333,54.1590097 76.6677394,54.5334168 77.3457551,54.8121701 C78.0611771,55.1062456 78.8029585,55.3024783 79.5506461,55.395615 C79.7346149,55.4184887 79.9183649,55.4356714 80.1020056,55.4472724 L80.102115,57.2025318 Z M86.6591474,46.459749 C86.3666786,49.2975168 84.0780063,51.8730574 81.1711464,52.1474329 C78.6644897,52.3840504 75.9396299,50.5870929 75.6428954,47.984082 C75.6027548,47.6328769 75.6119423,47.252122 75.6691454,46.8835153 C75.8341923,45.8204879 76.4775362,44.8030985 77.4275676,44.278425 C78.228849,43.8359438 79.2505211,43.7762969 80.0621931,44.1990782 C80.5344744,44.4449984 80.9368651,44.8667948 81.0565214,45.3857772 C81.4003964,46.8770582 79.041396,47.0572026 79.7501462,48.7722961 C80.0964275,49.6099788 81.0557558,50.0082448 81.8928028,49.6616363 C82.2321935,49.5211105 82.5833966,49.3114162 82.8558498,49.0863998 C83.1555374,48.838838 83.4350999,48.5313009 83.6428031,48.2202617 C84.8935064,46.3471314 84.3988032,43.7962157 82.8693029,42.2239463 C81.3302871,40.6420459 78.8748179,40.2423572 76.8302706,40.9637011 C76.2809893,41.1576355 75.7463642,41.4308072 75.2842547,41.7536664 C72.6065355,43.6244984 71.6679885,47.31155 72.8780043,50.3336211 C72.8868637,50.3558382 72.8967074,50.377727 72.9057856,50.3998346 L51.1007817,50.3998346 C51.1098599,50.3778364 51.1197036,50.3559477 51.1284536,50.33384 C52.544532,46.7947564 50.9126567,42.2830459 47.1761873,40.9635917 C46.6631091,40.7824622 46.0951246,40.6665613 45.5335932,40.6284748 C45.0104525,40.5927962 44.4525306,40.6324148 43.9205305,40.7427341 C42.1321395,41.1130919 40.5196236,42.4116424 39.908436,44.151908 C39.3482172,45.7469417 39.7046703,47.6566262 40.8842799,48.866965 C41.5548582,49.5550381 42.6145927,50.0096675 43.4808429,49.5947662 C44.4235462,49.1432011 44.6290618,47.6582679 43.8444055,46.9673493 C43.6305773,46.7789965 43.3658897,46.6478829 43.1820303,46.4300897 C42.7387334,45.9051974 42.9426084,45.0577742 43.4253898,44.5687793 C43.9666867,44.020466 44.7935619,43.7972007 45.5534995,43.9222949 C46.3136559,44.0473892 47.0006404,44.4962181 47.4874686,45.0935623 C48.5963125,46.4541674 48.601125,48.5493591 47.628453,50.0105431 C46.6557809,51.471727 44.8352337,52.2686966 43.0838116,52.1628645 C38.5095295,51.8864095 36.2129822,46.8505728 37.8851075,42.8762312 C38.9748108,40.2865725 41.56503,38.5530924 44.3297024,38.2826568 L79.6767555,38.2826568 C80.3616619,38.3496364 81.045037,38.5074543 81.7089434,38.7518423 C83.5584749,39.4328015 85.1394908,40.8027093 85.9893347,42.5906924 C86.5637724,43.798514 86.7941161,45.1503636 86.6591474,46.459749 Z" id="icon_column"></path>
                            </g>
                        </g>
                    </g>
                </g>
            </g>
        </g>
    </g>
</svg>