<?xml version="1.0" encoding="UTF-8"?>
<svg width="42px" height="56px" viewBox="0 0 42 56" version="1.1" xmlns="http://www.w3.org/2000/svg" xmlns:xlink="http://www.w3.org/1999/xlink">
    <!-- Generator: sketchtool 51 (57462) - http://www.bohemiancoding.com/sketch -->
    <title>2EA922A5-3726-4F48-AE35-73E78A11FCA6</title>
    <desc>Created with sketchtool.</desc>
    <defs></defs>
    <g id="Page-1" stroke="none" stroke-width="1" fill="none" fill-rule="evenodd">
        <g id="Test-Task" transform="translate(-1339.000000, -1065.000000)">
            <rect fill="#FFFFFF" x="0" y="0" width="1600" height="2220"></rect>
            <g id="content" transform="translate(0.000000, 124.000000)" fill="#3D4252" fill-rule="nonzero">
                <g id="items" transform="translate(100.000000, 841.000000)">
                    <g id="row-1">
                        <g id="5" transform="translate(1120.000000, 0.000000)">
                            <g id="icon" transform="translate(78.000000, 66.000000)">
                                <path d="M44,34 L80,34 C81.6568542,34 83,35.3431458 83,37 L83,87 C83,88.6568542 81.6568542,90 80,90 L44,90 C42.3431458,90 41,88.6568542 41,87 L41,37 C41,35.3431458 42.3431458,34 44,34 Z M80.6667031,84.1667031 L80.6665938,84.1667031 L80.6665938,39.8332969 C80.6665938,37.9035937 79.0962969,36.3332969 77.1665938,36.3332969 L46.8332969,36.3332969 C44.9035937,36.3332969 43.3332969,37.9035937 43.3332969,39.8332969 L43.3332969,84.1667031 C43.3332969,86.0964063 44.9035937,87.6667031 46.8332969,87.6667031 L77.1667031,87.6667031 C79.0964063,87.6667031 80.6667031,86.0964063 80.6667031,84.1667031 Z M77.1667031,38.6667031 C77.8107031,38.6667031 78.3332969,39.1892969 78.3332969,39.8332969 L78.3332969,84.1667031 C78.3332969,84.8107031 77.8105938,85.3334062 77.1665938,85.3334062 L46.8332969,85.3334062 C46.1892969,85.3334062 45.6665938,84.8107031 45.6665938,84.1667031 L45.6665938,39.8334062 C45.6665938,39.1894062 46.1892969,38.6667031 46.8332969,38.6667031 L77.1667031,38.6667031 Z M76,83 L76,41 L48,41 L48,83 L76,83 Z M73.3237031,74.0097031 C73.7787031,74.4647031 73.7787031,75.2042969 73.3237031,75.6594062 L68.657,80.3261094 C68.4305938,80.5525156 68.132,80.6668125 67.8332969,80.6668125 C67.5345938,80.6668125 67.236,80.5524062 67.0072969,80.3261094 C66.5522969,79.8711094 66.5522969,79.1314062 67.0072969,78.6764062 L71.674,74.0097031 C72.129,73.5547031 72.8687031,73.5547031 73.3237031,74.0097031 Z M73.3237031,67.0097031 C73.7787031,67.4647031 73.7787031,68.2042969 73.3237031,68.6594062 L63.9904063,77.9927031 C63.764,78.2191094 63.4654063,78.3334062 63.1667031,78.3334062 C62.868,78.3334062 62.5694063,78.219 62.3407031,77.9927031 C61.8857031,77.5377031 61.8857031,76.798 62.3407031,76.343 L71.674,67.0097031 C72.129,66.5547031 72.8687031,66.5547031 73.3237031,67.0097031 Z M56.9902969,43.6762969 C57.4452969,44.1312969 57.4452969,44.871 56.9902969,45.326 L52.3235938,49.9927031 C52.0971875,50.2191094 51.7985938,50.3334062 51.4998906,50.3334062 C51.2011875,50.3334062 50.9025938,50.219 50.6738906,49.9927031 C50.2188906,49.5377031 50.2188906,48.798 50.6738906,48.343 L55.3405938,43.6762969 C55.7955938,43.2212969 56.5352969,43.2212969 56.9902969,43.6762969 Z M61.657,46.0097031 C62.112,46.4647031 62.112,47.2042969 61.657,47.6594063 L52.3237031,56.9927031 C52.0972969,57.2191094 51.7987031,57.3334063 51.5,57.3334063 C51.2012969,57.3334063 50.9027031,57.219 50.674,56.9927031 C50.219,56.5377031 50.219,55.798 50.674,55.343 L60.0072969,46.0097031 C60.4622969,45.5547031 61.202,45.5547031 61.657,46.0097031 Z" id="icon_banner"></path>
                            </g>
                        </g>
                    </g>
                </g>
            </g>
        </g>
    </g>
</svg>