<?xml version="1.0" encoding="UTF-8"?>
<svg width="56px" height="48px" viewBox="0 0 56 48" version="1.1" xmlns="http://www.w3.org/2000/svg" xmlns:xlink="http://www.w3.org/1999/xlink">
    <!-- Generator: sketchtool 51 (57462) - http://www.bohemiancoding.com/sketch -->
    <title>F258DE22-1DC3-4928-9B13-FC0CBBFFA3D0</title>
    <desc>Created with sketchtool.</desc>
    <defs></defs>
    <g id="Page-1" stroke="none" stroke-width="1" fill="none" fill-rule="evenodd">
        <g id="Test-Task" transform="translate(-492.000000, -1325.000000)">
            <rect fill="#FFFFFF" x="0" y="0" width="1600" height="2220"></rect>
            <g id="content" transform="translate(0.000000, 124.000000)" fill="#3D4252" fill-rule="nonzero">
                <g id="items" transform="translate(100.000000, 841.000000)">
                    <g id="row-2" transform="translate(0.000000, 256.000000)">
                        <g id="2" transform="translate(280.000000, 0.000000)">
                            <g id="icon" transform="translate(78.000000, 66.000000)">
                                <path d="M86.6731406,38 L86.6731406,44.7406869 L34,44.7406869 L34,47.9735001 L41.9487187,47.9735001 L41.9487187,51.4813739 L34,51.4813739 L34,86 L83.49875,86 L83.49875,51.4813739 L70.3380937,51.4813739 L70.3380937,47.9735001 L86.6731406,47.9735001 L86.6731406,54.714187 L90,54.714187 L90,38 L86.6731406,38 Z M45.2755781,47.9735001 L67.011125,47.9735001 L67.011125,51.4813739 L45.2755781,51.4813739 L45.2755781,47.9735001 Z M78.2865938,54.714187 L80.1717813,54.714187 L80.1717813,82.7671869 L78.2865938,82.7671869 L78.2865938,54.714187 Z M74.9597344,54.714187 L74.9597344,82.7671869 L37.3268594,82.7671869 L37.3268594,54.714187 L74.9597344,54.714187 Z M44.4086719,60.6584947 L44.4086719,63.8913078 L67.8765,63.8913078 L67.8765,60.6584947 L44.4086719,60.6584947 Z M44.4086719,67.124121 L44.4086719,70.3569341 L67.8765,70.3569341 L67.8765,67.124121 L44.4086719,67.124121 Z M44.4086719,73.5898535 L44.4086719,76.8226666 L67.8765,76.8226666 L67.8765,73.5898535 L44.4086719,73.5898535 Z" id="icon_facade"></path>
                            </g>
                        </g>
                    </g>
                </g>
            </g>
        </g>
    </g>
</svg>