<?xml version="1.0" encoding="UTF-8"?>
<svg width="56px" height="42px" viewBox="0 0 56 42" version="1.1" xmlns="http://www.w3.org/2000/svg" xmlns:xlink="http://www.w3.org/1999/xlink">
    <!-- Generator: sketchtool 51 (57462) - http://www.bohemiancoding.com/sketch -->
    <title>CCDA4C91-1FE7-4303-AAA0-77FEA5C3381E</title>
    <desc>Created with sketchtool.</desc>
    <defs></defs>
    <g id="Page-1" stroke="none" stroke-width="1" fill="none" fill-rule="evenodd">
        <g id="Test-Task" transform="translate(-212.000000, -1328.000000)">
            <rect fill="#FFFFFF" x="0" y="0" width="1600" height="2220"></rect>
            <g id="content" transform="translate(0.000000, 124.000000)" fill="#3D4252" fill-rule="nonzero">
                <g id="items" transform="translate(100.000000, 841.000000)">
                    <g id="row-2" transform="translate(0.000000, 256.000000)">
                        <g id="1">
                            <g id="icon" transform="translate(78.000000, 66.000000)">
                                <path d="M83.3309688,64.8695381 C84.5535625,64.8686853 85.5195625,65.8420406 85.5202187,67.0005584 C85.5202187,67.0008782 85.5202187,67.001198 85.5202187,67.0015178 L85.5202187,75.102934 C85.5202187,76.2804264 84.540875,77.2349137 83.3327187,77.2349137 C82.1245625,77.2349137 81.1452187,76.2804264 81.1452187,75.102934 L81.1452187,72.1485431 L70.6516719,82.3755431 C69.7973438,83.2081878 68.4123281,83.2079746 67.5581094,82.3754365 C66.7037813,81.5428985 66.7037813,80.1930355 67.5581094,79.3603909 L78.0515469,69.1334975 L75.0202187,69.1334975 C73.8120625,69.1334975 72.8327187,68.1790102 72.8327187,67.0015178 C72.8327187,65.8240254 73.8120625,64.8695381 75.0202187,64.8695381 L83.3309688,64.8695381 Z M87.8126094,41 C89.0206563,41 90,41.9544873 90,43.1319797 C90,44.3094721 89.0206563,45.2639594 87.8125,45.2639594 L77.0936406,45.2639594 L77.09375,55.7106599 C77.09375,56.2760609 76.8632969,56.8184365 76.4530313,57.2181827 C76.042875,57.6180355 75.4864844,57.8426396 74.90625,57.8426396 L64.1875,57.8426396 L64.1876094,68.2893401 C64.1876094,68.8547411 63.9571562,69.3971168 63.5468906,69.7968629 C63.1367344,70.1967157 62.5802344,70.4213198 62.0001094,70.4213198 L51.28125,70.4213198 L51.2813594,80.8680203 C51.2813594,81.4334213 51.0509062,81.975797 50.6406406,82.3755431 C50.2304844,82.7753959 49.6739844,83 49.0938594,83 L36.1875,83 C34.9793437,83 34,82.0455127 34,80.8680203 C34,79.6905279 34.9793437,78.7360406 36.1875,78.7360406 L46.9063594,78.7360406 L46.9063594,68.2893401 C46.9063594,67.1118477 47.8857031,66.1573604 49.0938594,66.1573604 L59.8126094,66.1573604 L59.8126094,55.7106599 C59.8126094,54.5331675 60.7920625,53.5786802 62.0001094,53.5786802 L72.7188594,53.5786802 L72.7188594,43.1319797 C72.7188594,41.9544873 73.6982031,41 74.9063594,41 L87.8126094,41 Z" id="icon_stairs"></path>
                            </g>
                        </g>
                    </g>
                </g>
            </g>
        </g>
    </g>
</svg>