<?xml version="1.0" encoding="UTF-8"?>
<svg width="15px" height="16px" viewBox="0 0 15 16" version="1.1" xmlns="http://www.w3.org/2000/svg" xmlns:xlink="http://www.w3.org/1999/xlink">
    <!-- Generator: sketchtool 51 (57462) - http://www.bohemiancoding.com/sketch -->
    <title>74F6A9E3-7751-4211-B4CC-CC0654E34829</title>
    <desc>Created with sketchtool.</desc>
    <defs></defs>
    <g id="Page-1" stroke="none" stroke-width="1" fill="none" fill-rule="evenodd">
        <g id="Test-Task" transform="translate(-111.000000, -86.000000)" fill="#FFFFFF">
            <rect x="0" y="0" width="1600" height="2220"></rect>
            <g id="navigation" transform="translate(0.000000, 62.000000)" fill-rule="nonzero">
                <g id="btn_search" transform="translate(100.000000, 13.000000)">
                    <path d="M25.8952448,26.3291975 L21.2031011,21.1424311 C22.2594159,20.0264438 22.8465028,18.5421863 22.8415574,17.0001292 C22.8465768,15.409715 22.222324,13.8828478 21.1069289,12.7573809 C20.001627,11.6299117 18.4932728,10.9967617 16.9203509,11.0000137 C15.3476558,10.9966004 13.8395162,11.6297938 12.7346552,12.7573809 C11.6195084,13.8830144 10.9953,15.4097729 11.0000266,17.0001292 C11.0000266,18.6019378 11.6158815,20.1095223 12.7346552,21.2428775 C13.8397424,22.3701266 15.3477347,23.0032582 16.9203509,23.0002446 C18.267636,23.003948 19.5749425,22.5392829 20.6216564,21.6846637 L25.3138001,26.8705413 C25.4039147,26.9699934 25.5378939,27.0166956 25.6697457,26.9946159 C25.8015975,26.9725363 25.9133768,26.8846799 25.9667122,26.7612059 C26.0295808,26.616044 26.0019396,26.4472168 25.8961271,26.3300865 L25.8952448,26.3300865 L25.8952448,26.3291975 Z M11.788815,17.0001292 C11.788815,14.1325184 14.0907712,11.8000291 16.9194686,11.8000291 C19.7490483,11.8000291 22.0510044,14.1325184 22.0510044,17.0001292 C22.0510044,19.8677399 19.7490483,22.2002292 16.9194686,22.2002292 C14.0907712,22.2002292 11.788815,19.8677399 11.788815,17.0001292 Z" id="icon_search"></path>
                </g>
            </g>
        </g>
    </g>
</svg>