<?xml version="1.0" encoding="UTF-8"?>
<svg width="56px" height="56px" viewBox="0 0 56 56" version="1.1" xmlns="http://www.w3.org/2000/svg" xmlns:xlink="http://www.w3.org/1999/xlink">
    <!-- Generator: sketchtool 51 (57462) - http://www.bohemiancoding.com/sketch -->
    <title>2197ACA9-F30C-45D2-972B-F5929276E8F8</title>
    <desc>Created with sketchtool.</desc>
    <defs></defs>
    <g id="Page-1" stroke="none" stroke-width="1" fill="none" fill-rule="evenodd">
        <g id="Test-Task" transform="translate(-212.000000, -1577.000000)">
            <rect fill="#FFFFFF" x="0" y="0" width="1600" height="2220"></rect>
            <g id="content" transform="translate(0.000000, 124.000000)" fill="#3D4252" fill-rule="nonzero">
                <g id="items" transform="translate(100.000000, 841.000000)">
                    <g id="row-3" transform="translate(0.000000, 512.000000)">
                        <g id="1">
                            <g id="icon" transform="translate(78.000000, 66.000000)">
                                <path d="M84.9090584,34 L39.0909416,34 C36.2831502,34 34,36.2831502 34,39.0909416 L34,84.9090584 C34,87.7167305 36.2831502,90 39.0909416,90 L84.9090584,90 C87.7167305,90 90,87.7168498 90,84.9090584 L90,39.0909416 C89.9998807,36.2831502 87.7167305,34 84.9090584,34 Z M87.4544695,84.9090584 C87.4544695,86.3122382 86.3122382,87.4544695 84.9090584,87.4544695 L39.0909416,87.4544695 C37.6877618,87.4544695 36.5455305,86.3122382 36.5455305,84.9090584 L36.5455305,46.7272944 L87.4544695,46.7272944 L87.4544695,84.9090584 Z M87.4544695,44.1817639 L36.5454112,44.1817639 L36.5454112,39.0909416 C36.5454112,37.6877618 37.6876425,36.5455305 39.0908223,36.5455305 L84.908939,36.5455305 C86.3121189,36.5455305 87.4543502,37.6877618 87.4543502,39.0909416 L87.4544695,44.1817639 Z M42.909118,74.7271751 C42.205619,74.7271751 41.6363528,74.1580282 41.6363528,73.4545292 L41.6363528,53.090882 C41.6363528,52.387383 42.205619,51.8181167 42.909118,51.8181167 L68.3635876,51.8181167 C69.0670866,51.8181167 69.6363528,52.387383 69.6363528,53.090882 L69.6363528,73.4544099 C69.6363528,74.1579089 69.0670866,74.7271751 68.3635876,74.7271751 L42.909118,74.7271751 Z M50.5454708,56.9090584 C48.4399852,56.9090584 46.7272944,58.6217491 46.7272944,60.7272348 L46.7272944,68.3635876 C46.7272944,69.0670866 47.2965607,69.6363528 48.0000597,69.6363528 C48.7035587,69.6363528 49.2728249,69.0670866 49.2728249,68.3635876 L49.2728249,67.0908223 L51.8182361,67.0908223 L51.8182361,68.3635876 C51.8182361,69.0670866 52.3875023,69.6363528 53.0910013,69.6363528 C53.7945003,69.6363528 54.3637665,69.0670866 54.3637665,68.3635876 L54.3637665,60.7272348 C54.3636472,58.6217491 52.6508371,56.9090584 50.5454708,56.9090584 Z M51.8181167,64.5454112 L49.2727056,64.5454112 L49.2727056,60.7272348 C49.2727056,60.0250483 49.843165,59.4544695 50.5454708,59.4544695 C51.2477766,59.4544695 51.8182361,60.0249289 51.8182361,60.7272348 L51.8182361,64.5454112 L51.8181167,64.5454112 Z M60.7272348,56.9090584 L58.1818236,56.9090584 C57.4783246,56.9090584 56.9090584,57.4783246 56.9090584,58.1818236 L56.9090584,68.3635876 C56.9090584,69.0670866 57.4783246,69.6363528 58.1818236,69.6363528 L60.7272348,69.6363528 C62.8327204,69.6363528 64.5454112,67.923662 64.5454112,65.8181764 L64.5454112,60.7272348 C64.5454112,58.6217491 62.8327204,56.9090584 60.7272348,56.9090584 Z M62,65.8181764 C62,66.5203629 61.4295406,67.0909416 60.7272348,67.0909416 L59.4544695,67.0909416 L59.4544695,59.4545888 L60.7272348,59.4545888 C61.4294213,59.4545888 62,60.0250483 62,60.7273541 L62,65.8181764 Z M42.909118,82.3635279 C42.205619,82.3635279 41.6363528,81.794381 41.6363528,81.090882 C41.6363528,80.387383 42.205619,79.8181167 42.909118,79.8179974 L81.090882,79.8179974 C81.794381,79.8179974 82.3636472,80.3872637 82.3636472,81.0907627 C82.3636472,81.7942617 81.794381,82.3635279 81.090882,82.3635279 L42.909118,82.3635279 Z M73.4545292,59.4544695 C72.7510302,59.4544695 72.1817639,58.8853226 72.1817639,58.1818236 C72.1817639,57.4783246 72.7510302,56.9090584 73.4545292,56.9090584 L81.090882,56.9090584 C81.794381,56.9090584 82.3636472,57.4782053 82.3636472,58.1817043 C82.3636472,58.8852033 81.794381,59.4544695 81.090882,59.4544695 L73.4545292,59.4544695 Z M73.4545292,67.0908223 C72.7510302,67.0908223 72.1817639,66.5216754 72.1817639,65.8181764 C72.1817639,65.1146774 72.7510302,64.5454112 73.4545292,64.5454112 L81.090882,64.5454112 C81.794381,64.5454112 82.3636472,65.1145581 82.3636472,65.8180571 C82.3636472,66.5215561 81.794381,67.0908223 81.090882,67.0908223 L73.4545292,67.0908223 Z M73.4545292,74.7271751 C72.7510302,74.7271751 72.1817639,74.1580282 72.1817639,73.4544099 C72.1817639,72.7509109 72.7510302,72.1816446 73.4545292,72.1816446 L81.090882,72.1816446 C81.794381,72.1816446 82.3636472,72.7509109 82.3636472,73.4544099 C82.3636472,74.1579089 81.794381,74.7271751 81.090882,74.7271751 L73.4545292,74.7271751 Z" id="icon_ad"></path>
                            </g>
                        </g>
                    </g>
                </g>
            </g>
        </g>
    </g>
</svg>