<?xml version="1.0" encoding="UTF-8"?>
<svg width="18px" height="10px" viewBox="0 0 18 10" version="1.1" xmlns="http://www.w3.org/2000/svg" xmlns:xlink="http://www.w3.org/1999/xlink">
    <!-- Generator: sketchtool 51 (57462) - http://www.bohemiancoding.com/sketch -->
    <title>0C4AC768-A31D-4A5F-8558-311176A46DC5</title>
    <desc>Created with sketchtool.</desc>
    <defs></defs>
    <g id="Page-1" stroke="none" stroke-width="1" fill="none" fill-rule="evenodd">
        <g id="Test-Task" transform="translate(-1347.000000, -24.000000)">
            <rect fill="#FFFFFF" x="0" y="0" width="1600" height="2220"></rect>
            <g id="header" fill="#8088A3" fill-rule="nonzero">
                <g id="social" transform="translate(1338.000000, 11.000000)">
                    <g id="vkontakte">
                        <path d="M24.4915649,19.3584556 C25.0886473,19.9307387 25.7188485,20.4691736 26.2543657,21.0991669 C26.4909277,21.3791252 26.7148927,21.6680245 26.8862228,21.9929201 C27.1289945,22.4547758 26.9091101,22.9630203 26.487261,22.9905981 L23.8649713,22.9894369 C23.1886405,23.0445345 22.6491018,22.777233 22.195435,22.3232732 C21.8323715,21.9602331 21.4961578,21.5738535 21.1470514,21.1985631 C21.0039314,21.0451724 20.8541285,20.9008389 20.6751694,20.7867538 C20.317192,20.5586418 20.0064678,20.6284863 19.8019008,20.9950098 C19.5935488,21.3678037 19.5462956,21.7806 19.525833,22.1960669 C19.4977412,22.8022562 19.3110938,22.9616269 18.6908283,22.9893789 C17.3652531,23.0507468 16.1072165,22.8538702 14.9385411,22.1974023 C13.9081953,21.6186747 13.1092072,20.8016749 12.4137741,19.8767442 C11.0597524,18.0757101 10.0228421,16.0966686 9.0909061,14.0621811 C8.88113475,13.6038089 9.0345452,13.3577567 9.54971808,13.349048 C10.4051854,13.3327335 11.2605344,13.3338947 12.1170071,13.3478868 C12.4646941,13.3528798 12.6948689,13.5486532 12.8291178,13.8711104 C13.2919514,14.988331 13.8582808,16.0512668 14.5691496,17.0365203 C14.7584583,17.2988288 14.9514929,17.5611373 15.2263779,17.7457634 C15.5304783,17.9501876 15.7620134,17.8824332 15.9050743,17.5498739 C15.9958549,17.3390053 16.0355973,17.1118803 16.0560599,16.8860325 C16.123835,16.109035 16.1327652,15.3333729 16.0138928,14.5591041 C15.9409134,14.0758829 15.6636627,13.7630634 15.1725009,13.6716212 C14.9218635,13.6250002 14.9591811,13.5334419 15.0805374,13.3929983 C15.2913142,13.150778 15.4895531,13 15.8847299,13 L18.8483194,13 C19.3148788,13.0903972 19.418493,13.2961566 19.4823647,13.7570254 L19.4849077,16.9887381 C19.4798216,17.167152 19.5756884,17.6965878 19.9030311,17.8146789 C20.1650235,17.8987477 20.3377137,17.6929882 20.4949092,17.5299018 C21.2044768,16.7905843 21.7108969,15.9168612 22.1633217,15.012135 C22.3641037,14.6143178 22.5367348,14.2011732 22.7040433,13.788377 C22.8280018,13.4820601 23.0225149,13.3313401 23.3739869,13.3380168 L26.2262739,13.3405134 C26.3108449,13.3405134 26.3964212,13.3417326 26.4783307,13.3554925 C26.9589656,13.4359035 27.0906715,13.6388762 26.9422288,14.0996288 C26.7083281,14.8225157 26.253242,15.4249312 25.8082689,16.0301335 C25.3326019,16.676267 24.8238753,17.3002802 24.3521707,17.9502456 C23.9187891,18.5437781 23.9532089,18.8429538 24.4915649,19.3584556 Z" id="icon_social_vk"></path>
                    </g>
                </g>
            </g>
        </g>
    </g>
</svg>