<?xml version="1.0" encoding="UTF-8"?>
<svg width="9px" height="16px" viewBox="0 0 9 16" version="1.1" xmlns="http://www.w3.org/2000/svg" xmlns:xlink="http://www.w3.org/1999/xlink">
    <!-- Generator: sketchtool 51 (57462) - http://www.bohemiancoding.com/sketch -->
    <title>3D98FAD1-3E1A-4961-91B3-96AE296C9D25</title>
    <desc>Created with sketchtool.</desc>
    <defs></defs>
    <g id="Page-1" stroke="none" stroke-width="1" fill="none" fill-rule="evenodd">
        <g id="Test-Task" transform="translate(-1393.000000, -21.000000)">
            <rect fill="#FFFFFF" x="0" y="0" width="1600" height="2220"></rect>
            <g id="header" fill="#8088A3" fill-rule="nonzero">
                <g id="social" transform="translate(1338.000000, 11.000000)">
                    <g id="facebook" transform="translate(42.000000, 0.000000)">
                        <path d="M21.6610864,10.0033291 L19.5023957,10 C17.0771806,10 15.5099001,11.5455198 15.5099001,13.9376216 L15.5099001,15.7531288 L13.3394331,15.7531288 C13.151879,15.7531288 13,15.8992749 13,16.0795439 L13,18.710007 C13,18.890276 13.1520522,19.0362556 13.3394331,19.0362556 L15.5099001,19.0362556 L15.5099001,25.6737513 C15.5099001,25.8540204 15.6617791,26 15.8493333,26 L18.6811753,26 C18.8687294,26 19.0206084,25.8538539 19.0206084,25.6737513 L19.0206084,19.0362556 L21.5583906,19.0362556 C21.7459447,19.0362556 21.8978237,18.890276 21.8978237,18.710007 L21.8988628,16.0795439 C21.8988628,15.9929882 21.8630145,15.9100944 21.7994574,15.8488395 C21.7359002,15.7875847 21.6493102,15.7531288 21.5592565,15.7531288 L19.0206084,15.7531288 L19.0206084,14.2141007 C19.0206084,13.4743818 19.2040062,13.0988629 20.2065462,13.0988629 L21.6607401,13.0983636 C21.848121,13.0983636 22,12.9522175 22,12.7721149 L22,10.3295777 C22,10.1496416 21.8482942,10.003662 21.6610864,10.0033291 Z" id="icon_social_fb"></path>
                    </g>
                </g>
            </g>
        </g>
    </g>
</svg>