<?xml version="1.0" encoding="UTF-8"?>
<svg width="14px" height="14px" viewBox="0 0 14 14" version="1.1" xmlns="http://www.w3.org/2000/svg" xmlns:xlink="http://www.w3.org/1999/xlink">
    <!-- Generator: sketchtool 51 (57462) - http://www.bohemiancoding.com/sketch -->
    <title>F7AF2807-7430-44F6-8D78-AFF58B669FA8</title>
    <desc>Created with sketchtool.</desc>
    <defs></defs>
    <g id="Page-1" stroke="none" stroke-width="1" fill="none" fill-rule="evenodd">
        <g id="Test-Task" transform="translate(-1433.000000, -22.000000)">
            <rect fill="#FFFFFF" x="0" y="0" width="1600" height="2220"></rect>
            <g id="header" fill="#8088A3" fill-rule="nonzero">
                <g id="social" transform="translate(1338.000000, 11.000000)">
                    <g id="insta" transform="translate(84.000000, 0.000000)">
                        <path d="M24.9940137,12.4581997 C24.912263,11.6279316 24.2120341,10.9962334 23.3776377,11.0000169 C19.7936743,11.0000169 16.2101572,11.0000169 12.6257476,11.0009093 C12.527569,11.0009093 12.4280517,11.0080485 12.332997,11.0267889 C11.5390895,11.1784971 11,11.8348578 11,12.6429267 L11,18.0022395 C11,19.7852562 11,21.5678267 11.0008925,23.3503972 C11.0008925,23.4409759 11.0075865,23.532447 11.0191894,23.6230256 C11.1231695,24.3980757 11.8117581,24.9995538 12.5954015,25 L23.406645,24.9995538 C23.468676,24.9995538 23.5293682,24.9959842 23.5913992,24.9892912 C24.3830753,24.8964815 24.9989226,24.2048709 24.9989226,23.407957 C25.0002614,19.8039966 25.0002614,16.2004823 24.9993689,12.5969681 C25.0002614,12.550117 25.0011539,12.5041584 24.9949062,12.4581997 L24.9940137,12.4581997 Z M17.9996844,15.3085278 C18.7138008,15.3078172 19.3989056,15.5909896 19.9040715,16.0956627 C20.4092375,16.6003357 20.6930194,17.2851046 20.6929006,17.9991161 C20.694442,18.7129942 20.4118012,19.3981423 19.9073564,19.90335 C19.4029115,20.4085577 18.7181321,20.6922926 18.0041471,20.6919353 C17.2889067,20.6931223 16.6026191,20.4095615 16.0968671,19.903884 C15.5911151,19.3982065 15.3075125,18.71202 15.3086996,17.9968851 C15.3109141,16.5121935 16.5147727,15.3095103 17.9996844,15.3085278 Z M23.3879018,16.9973962 L23.3879018,22.7984473 C23.3879018,23.1625468 23.1665538,23.385647 22.8019544,23.385647 L13.1826877,23.385647 C12.8453105,23.3852008 12.616376,23.1558538 12.616376,22.8189725 L12.616376,16.9282351 L13.8315587,16.9282351 C13.5597826,18.0249957 13.6842908,19.074459 14.221149,20.0668086 C14.6138632,20.7909918 15.1761586,21.3540967 15.8937545,21.7592466 C17.3185231,22.5592986 19.0737197,22.4827038 20.4233559,21.5615799 C21.1598579,21.0661125 21.7223756,20.3521449 22.031699,19.5202131 C22.3507793,18.673771 22.3927283,17.8094809 22.1695953,16.9264503 L23.3870093,16.9264503 L23.3879018,16.99695 L23.3879018,16.9973962 Z M23.3879018,14.7574703 C23.3870093,15.0756112 23.1527196,15.3080816 22.8327468,15.3085278 L22.0406244,15.3085278 C21.775096,15.3085278 21.5086751,15.308974 21.241808,15.3080816 C20.9352231,15.3080816 20.6964707,15.0791808 20.6951319,14.7726411 C20.6915618,14.2333395 20.6915618,13.6940202 20.6951319,13.1547185 C20.696917,12.8446093 20.9343306,12.6174933 21.2462706,12.6170471 L22.8372094,12.6170471 C22.9842901,12.6133378 23.126458,12.6700946 23.230535,12.774072 C23.334612,12.8780493 23.3914924,13.0201502 23.3879018,13.1672121 C23.3883481,13.6981906 23.3883481,14.2278304 23.3874556,14.7579165 L23.3879018,14.7574703 Z" id="icon_social_instagram"></path>
                    </g>
                </g>
            </g>
        </g>
    </g>
</svg>