<?xml version="1.0" encoding="UTF-8"?>
<svg width="16px" height="16px" viewBox="0 0 16 16" version="1.1" xmlns="http://www.w3.org/2000/svg" xmlns:xlink="http://www.w3.org/1999/xlink">
    <!-- Generator: sketchtool 51 (57462) - http://www.bohemiancoding.com/sketch -->
    <title>0EBBC068-57F9-4B2C-9BD7-CFC3B1208CB5</title>
    <desc>Created with sketchtool.</desc>
    <defs></defs>
    <g id="Page-1" stroke="none" stroke-width="1" fill="none" fill-rule="evenodd">
        <g id="Test-Task" transform="translate(-1474.000000, -21.000000)">
            <rect fill="#FFFFFF" x="0" y="0" width="1600" height="2220"></rect>
            <g id="header" fill="#8088A3" fill-rule="nonzero">
                <g id="social" transform="translate(1338.000000, 11.000000)">
                    <g id="youtube" transform="translate(126.000000, 0.000000)">
                        <path d="M25.4994739,19.2202293 L25.4994739,23.936584 C25.5028977,24.2177276 25.4357789,24.4955531 25.3037544,24.7467275 C25.1727654,24.9958599 24.9912256,25.2175214 24.7697349,25.3987697 C24.5392058,25.588356 24.2753957,25.7373479 23.99054,25.8388353 C23.693804,25.9455789 23.3749707,25.9999577 23.0314094,25.9999577 L12.9581709,25.9999577 C12.6347177,26.0017412 12.3136286,25.9471432 12.0106151,25.8388353 C11.7251994,25.7378342 11.4609576,25.5887998 11.2303679,25.3987697 C11.009805,25.2164204 10.8281204,24.9950182 10.6952962,24.7467275 C10.5639165,24.4953502 10.4970049,24.2176358 10.5001029,23.936584 L10.5001029,19.2202293 C10.5001029,18.9402791 10.5648166,18.6734201 10.6958223,18.4201558 C10.8253194,18.1688319 11.0074506,17.9456858 11.2308941,17.7645891 C11.4550244,17.5823194 11.7154576,17.4342882 12.0111413,17.3235165 C12.306825,17.2127449 12.6230276,17.157359 12.958697,17.157359 L23.0319356,17.157359 C23.3676049,17.157359 23.6848599,17.2132484 23.9847526,17.3235165 C24.2708152,17.4271977 24.5365544,17.5763136 24.7707872,17.7645891 C24.9964959,17.9468588 25.1738009,18.1663881 25.3048067,18.4201558 C25.4358124,18.6739236 25.5,18.9407826 25.5,19.2202293 L25.4994739,19.2202293 Z M13.6326664,24.4627493 L13.6326664,19.4880952 L14.868014,19.4880952 L14.868014,18.735855 L11.5323652,18.735855 L11.5323652,19.4664444 L12.6014564,19.4664444 L12.6014564,24.4622458 L13.6326664,24.4622458 L13.6326664,24.4627493 Z M14.1361705,12.8896295 L12.7550857,10 L13.9572872,10 L14.6444098,12.1600472 L15.3294279,10 L16.5295249,10 L15.2363033,12.8896295 L15.2363033,16.2545701 L14.1361705,16.2545701 L14.1361705,12.8896295 Z M17.3823777,20.2181811 L16.3506415,20.2181811 L16.3506415,22.8736796 C16.3506415,23.0660195 16.352746,23.2150577 16.3606379,23.3177732 C16.3674776,23.4230063 16.352746,23.4889658 16.3153909,23.5171622 C16.2843494,23.6314584 16.1975384,23.7155442 16.0496965,23.769923 C15.9071159,23.8222878 15.796103,23.7477686 15.7192884,23.5383095 C15.7035046,23.5106166 15.7014001,23.4401256 15.709292,23.3298574 C15.7161316,23.2180788 15.7192884,23.0730686 15.7192884,22.8933164 L15.6982433,20.2181811 L14.6654549,20.2181811 L14.6891306,22.8520288 C14.6891306,23.0589704 14.6838693,23.2316735 14.6765036,23.3716486 C14.6691378,23.5116236 14.6712423,23.6163532 14.6891306,23.6888583 L14.7327992,24.0599433 C14.7470046,24.1913588 14.8180319,24.2981023 14.9469331,24.377153 C15.0663641,24.4481476 15.206314,24.4854071 15.3657307,24.4854071 C15.5288302,24.4854071 15.6861424,24.4592247 15.8387194,24.4083705 C15.9934009,24.3575162 16.1338769,24.2890392 16.2648827,24.2004219 C16.3948362,24.1113011 16.4916437,24.0146276 16.5500438,23.9149331 L16.5295249,24.440595 L17.3823777,24.4617423 L17.3823777,20.2181811 Z M16.4385048,13.3312056 C16.4385048,12.9369592 16.4784905,12.6101829 16.5510961,12.3549046 C16.6431684,12.0885491 16.7878535,11.8987268 16.9904126,11.7834235 C17.1934979,11.6404274 17.4513004,11.5679223 17.7653985,11.5679223 C18.0416155,11.5679223 18.2720594,11.6117275 18.4614653,11.6968203 C18.6477145,11.7688218 18.8013437,11.8931882 18.9213008,12.0734439 C19.0117948,12.2043558 19.0796652,12.3488625 19.1243861,12.5150199 C19.1670024,12.6942686 19.1906781,12.9334347 19.1906781,13.2355392 L19.1906781,14.3618854 C19.1906781,14.771237 19.1670024,15.0647819 19.1243861,15.2450376 C19.1064977,15.4086775 19.0338921,15.5914507 18.8976251,15.7923502 C18.7639887,15.9705919 18.6187775,16.0889161 18.4614653,16.146316 C18.2720594,16.2329193 18.0610822,16.2742069 17.8201158,16.2742069 C17.5754665,16.2742069 17.3481794,16.2384579 17.1477248,16.1664563 C16.9593711,16.1095599 16.8199473,16.0053339 16.732084,15.8562957 C16.6426423,15.7394819 16.5663538,15.5798701 16.505323,15.371418 C16.4616544,15.1765606 16.4379787,14.8855332 16.4379787,14.4907833 L16.4379787,13.3301986 L16.4385048,13.3312056 Z M17.3597542,15.0824047 C17.3597542,15.1967009 17.4050012,15.2994164 17.4954951,15.3890407 C17.579529,15.4729038 17.6954495,15.5206514 17.8168587,15.5214102 C17.9382679,15.522169 18.0548302,15.4758743 18.1400014,15.3930688 C18.23091,15.3132919 18.281519,15.1999143 18.2788991,15.0819011 L18.2788991,12.7501579 C18.2819673,12.6276576 18.231648,12.5094569 18.1400014,12.4238851 C18.0573748,12.3385566 17.9416707,12.2895661 17.8201158,12.2884416 C17.6988056,12.2893025 17.5833227,12.3383608 17.5012825,12.4238851 C17.4088303,12.5091289 17.3575643,12.6273151 17.3597542,12.7501579 L17.3597542,15.0819011 L17.3597542,15.0824047 Z M20.7164481,23.2487927 L20.7164481,21.0459474 C20.7164481,20.6240081 20.5607143,20.3219037 20.2471423,20.1441655 C20.1369742,20.0856725 20.0127188,20.055814 19.8867449,20.0575622 C19.6389388,20.0575622 19.3553561,20.1688374 19.0338921,20.3908842 L19.0338921,18.7363585 L18.0011037,18.7363585 L18.0011037,24.4209582 L18.8550087,24.3998109 L18.9213008,24.0458451 C19.19857,24.2688989 19.4495329,24.4043424 19.6678758,24.4546932 C19.8899017,24.5040369 20.0750986,24.4844001 20.229254,24.3947758 C20.3834093,24.306662 20.5028403,24.1596378 20.588073,23.9537032 C20.6733056,23.7502862 20.7164481,23.5136377 20.7164481,23.2497997 L20.7164481,23.2487927 Z M19.4721564,20.6058819 C19.5915873,20.6058819 19.6962867,20.6396169 19.7909897,20.7085974 C19.8841143,20.7760674 19.9309396,20.8536076 19.9309396,20.9381968 L19.9309396,23.4320695 C19.9309396,23.5176657 19.8841143,23.5916813 19.7909897,23.6566338 C19.6983143,23.7208964 19.5865989,23.7551225 19.4721564,23.7543142 C19.351147,23.7543142 19.2453954,23.7210828 19.1496402,23.6566338 C19.0575679,23.5921848 19.0123209,23.5176657 19.0123209,23.4320695 L19.0123209,20.9381968 C19.0123209,20.8526006 19.058094,20.7760674 19.1496402,20.7085974 C19.2421189,20.6408079 19.3556737,20.6046428 19.4721564,20.6058819 Z M19.953037,15.814001 C19.9254842,15.7575771 19.9070352,15.6974795 19.8983197,15.6357594 C19.8906802,15.5759998 19.8789042,15.5167915 19.8630692,15.4585248 C19.8470251,15.3621383 19.8399823,15.2645761 19.8420241,15.1669939 L19.8420241,11.7416324 L20.8074682,11.7416324 L20.8074682,15.1579308 C20.8074682,15.2450376 20.8400881,15.3180462 20.9074324,15.3845092 C20.9774074,15.4479511 21.0652707,15.4811826 21.177862,15.4811826 C21.2830875,15.4811826 21.3730553,15.4479511 21.4472393,15.3845092 C21.5191691,15.329311 21.5614537,15.2461605 21.5624612,15.1579308 L21.5624612,11.7416324 L22.4579304,11.7416324 L22.4579304,16.1256722 L21.3151813,16.1256722 L21.3357003,15.7717064 C21.2304747,15.914199 21.1310366,16.0259777 21.0326508,16.1040214 C20.9148614,16.1750562 20.7783315,16.2124375 20.6391073,16.211772 C20.4681159,16.211772 20.3244831,16.1755194 20.2118918,16.1040214 C20.1135059,16.0405794 20.0277471,15.942899 19.953037,15.814001 Z M23.9726517,22.9708566 L23.1992441,22.9708566 L23.1992441,23.4532168 C23.2041369,23.5573259 23.1558703,23.6572197 23.0698167,23.7210828 C22.9821794,23.7862701 22.8734985,23.8201084 22.7625582,23.8167492 L22.6020893,23.8167492 C22.4945715,23.8208575 22.3892616,23.7867852 22.3064056,23.7210828 C22.2258508,23.6539959 22.1818432,23.5552934 22.1869747,23.4532168 L22.1869747,22.4316001 L23.9726517,22.4316001 L23.9726517,21.8404823 C23.9726517,21.6194425 23.9689688,21.4059553 23.9610768,21.2020348 C23.9542372,20.9971072 23.9363489,20.8374953 23.9063596,20.7247096 C23.8828563,20.5395921 23.7835038,20.3709819 23.6301426,20.2559442 C23.473418,20.1360003 23.2890995,20.053499 23.0924402,20.0152676 C22.8857659,19.9705821 22.6722102,19.9630696 22.4626655,19.9931133 C22.25011,20.0218132 22.0670176,20.0887797 21.9065487,20.1965303 C21.7071106,20.324822 21.5544582,20.5094578 21.4698628,20.7247096 C21.3793688,20.9452459 21.3351741,21.253896 21.3351741,21.6486459 L21.3351741,22.9708566 C21.3351741,23.5277359 21.4898556,23.9270173 21.796588,24.1626588 C22.0801708,24.3836986 22.3784851,24.4959808 22.6931094,24.4959808 L22.7851817,24.4959808 C23.1376872,24.4758405 23.4475763,24.3318373 23.7180059,24.0659854 C23.9200389,23.8726385 24.0210554,23.6173602 24.0210554,23.3041785 C24.0094806,23.20247 23.9973796,23.0906914 23.9731778,22.9703531 L23.9726517,22.9708566 Z M23.1755684,21.7110808 L22.1880269,21.7110808 L22.2101243,21.186426 C22.2101243,21.0711228 22.2553713,20.9779739 22.3448129,20.9009373 C22.4348663,20.8249917 22.5515435,20.7843551 22.6715382,20.7871446 L22.7167851,20.7871446 C22.8498954,20.7871446 22.9640651,20.8233971 23.0587681,20.8948952 C23.1511803,20.9653532 23.2034413,21.0734063 23.1997702,21.186426 L23.1760945,21.7110808 L23.1755684,21.7110808 Z" id="icon_social_youtube"></path>
                    </g>
                </g>
            </g>
        </g>
    </g>
</svg>