<svg xmlns="http://www.w3.org/2000/svg" width="16" height="16" viewBox="0 0 16 16">
    <path fill="#000" fill-rule="evenodd" d="M4.517.094C3.264.151 2.178.457 1.302 1.33.422 2.208.119 3.298.062 4.538c-.034.773-.24 6.62.357 8.152a3.879 3.879 0 0 0 2.24 2.234c.487.189 1.042.317 1.858.355 6.819.308 9.346.14 10.412-2.589.19-.486.32-1.041.356-1.855.311-6.836-.05-8.318-1.24-9.505-.942-.94-2.05-1.58-9.528-1.236m.063 13.81c-.747-.034-1.152-.158-1.422-.263a2.505 2.505 0 0 1-1.454-1.449C1.25 11.027 1.4 5.495 1.441 4.6c.04-.877.218-1.679.836-2.297.766-.764 1.755-1.138 8.491-.834.88.04 1.683.217 2.303.834.766.764 1.145 1.76.836 8.47-.034.745-.158 1.15-.263 1.42-.693 1.775-2.288 2.022-9.064 1.71M10.843 3.61a.919.919 0 1 0 1.839 0 .919.919 0 0 0-1.84 0m-7.1 4.077a3.927 3.927 0 0 0 3.932 3.922 3.927 3.927 0 0 0 3.932-3.922 3.926 3.926 0 0 0-3.932-3.921 3.926 3.926 0 0 0-3.932 3.921m1.38 0A2.55 2.55 0 0 1 7.674 5.14a2.55 2.55 0 0 1 2.552 2.546 2.55 2.55 0 0 1-2.552 2.547 2.55 2.55 0 0 1-2.552-2.547"/>
</svg>
