<svg xmlns="http://www.w3.org/2000/svg" width="16" height="13" viewBox="0 0 16 13">
    <path fill="#000" fill-rule="evenodd" d="M5.28 12.438c5.714 0 8.84-4.738 8.84-8.846 0-.135 0-.269-.01-.402a6.313 6.313 0 0 0 1.55-1.61 6.186 6.186 0 0 1-1.784.49c.649-.389 1.134-1 1.366-1.72a6.225 6.225 0 0 1-1.973.755A3.11 3.11 0 0 0 7.974 3.94 8.823 8.823 0 0 1 1.57.693a3.112 3.112 0 0 0 .963 4.15 3.082 3.082 0 0 1-1.411-.39v.04A3.11 3.11 0 0 0 3.615 7.54a3.09 3.09 0 0 1-1.403.053 3.11 3.11 0 0 0 2.903 2.16A6.231 6.231 0 0 1 .516 11.04a8.795 8.795 0 0 0 4.763 1.394"/>
</svg>
